<svg id="autoru" xmlns="http://www.w3.org/2000/svg" width="44" height="44" fill="none"><g clip-path="url(#a)"><path fill="#DE3322" d="M5 5h34v34H5z"/><path fill-rule="evenodd" clip-rule="evenodd" d="m28.12 17.74-1.96-1.61a6.05 6.05 0 0 0-3.41-1.21H15.7c-1.14 0-2.6.6-3.37 1.37l-2.2 2.13a5.26 5.26 0 0 0-1.46 3.33v1.96c0 1.37 1.21 2.53 2.69 2.53h1.16a3.26 3.26 0 0 0 6.28 0h6.38a3.26 3.26 0 0 0 6.28 0h1.4a2.54 2.54 0 0 0 2.59-2.53v-1.95A2.8 2.8 0 0 0 33 19.02l-2.72-.35a5.26 5.26 0 0 1-2.17-.93zM15.67 26.7a1.3 1.3 0 0 1-.97-.45 1.37 1.37 0 0 1-.34-.92c0-.64.57-1.26 1.31-1.26.74 0 1.32.62 1.32 1.26 0 .37-.13.68-.34.92-.24.28-.6.45-.98.45zm0-4.58c1.43 0 2.65.93 3.1 2.18h6.47a3.28 3.28 0 0 1 6.18 0h1.45c.4 0 .64-.29.64-.58v-1.95a.85.85 0 0 0-.73-.8l-2.73-.35a6.45 6.45 0 0 1-1.67-.48 6.5 6.5 0 0 1-1.5-.88l-1.96-1.61a3.6 3.6 0 0 0-1.01-.53 3.69 3.69 0 0 0-1.16-.24H15.7a3 3 0 0 0-1.08.25c-.43.18-.76.4-.92.56l-2.22 2.14c-.2.2-.42.53-.6.95-.2.42-.26.78-.26.98v1.96c0 .1.04.23.18.36.14.13.34.22.56.22h1.22a3.28 3.28 0 0 1 3.08-2.18zm12.66 4.58a1.3 1.3 0 0 1-.98-.45c-.2-.24-.33-.55-.33-.92a1.31 1.31 0 0 1 2.62 0c0 .37-.13.68-.33.92-.25.28-.6.45-.98.45z" fill="#fff"/></g><defs><clipPath id="a"><circle cx="22" cy="22" r="17"/></clipPath></defs></svg>