<svg id="images" xmlns="http://www.w3.org/2000/svg" width="44" height="44" fill="none"><g clip-path="url(#a)"><path fill-rule="evenodd" clip-rule="evenodd" d="m20.45 31.5-5.4-5.4L5 36.18V5h34v28.79L28.66 22.7l-8.2 8.8z" fill="url(#b)"/><path fill-rule="evenodd" clip-rule="evenodd" d="M5 35.46V39h23.66l-13.6-13.6L5 35.46z" fill="url(#c)"/><path fill-rule="evenodd" clip-rule="evenodd" d="m12.8 39 15.86-17L39 33.08v6.62H5V39h7.8z" fill="url(#d)"/><path d="M16.33 20.58a4.25 4.25 0 1 0 0-8.5 4.25 4.25 0 0 0 0 8.5z" fill="#FC4714"/></g><defs><linearGradient id="b" x1="39" y1="39" x2="6.84" y2="3.34" gradientUnits="userSpaceOnUse"><stop stop-color="#FC0"/><stop offset="1" stop-color="#FFE26D"/></linearGradient><linearGradient id="c" x1="15.06" y1="25.4" x2="15.06" y2="39" gradientUnits="userSpaceOnUse"><stop stop-color="#655517"/><stop offset="1" stop-color="#010101"/></linearGradient><linearGradient id="d" x1="28.33" y1="7.13" x2="27.25" y2="31.87" gradientUnits="userSpaceOnUse"><stop stop-opacity=".4"/><stop offset="1"/></linearGradient><clipPath id="a"><circle cx="22" cy="22" r="17"/></clipPath></defs></svg>