<svg id="maps" xmlns="http://www.w3.org/2000/svg" width="44" height="44" fill="none"><path fill-rule="evenodd" clip-rule="evenodd" d="M22 4a14 14 0 0 0-9.9 23.9c.66.66 1.55 1.4 2.52 2.2 2.74 2.26 6.07 5 6.33 7.85a1.05 1.05 0 1 0 2.1 0c.26-2.85 3.59-5.6 6.33-7.85.97-.8 1.86-1.54 2.52-2.2A14 14 0 0 0 22 4zm0 19a5 5 0 1 0 0-10 5 5 0 0 0 0 10z" fill="url(#a)"/><defs><linearGradient id="a" x1="22" y1="4" x2="22" y2="39" gradientUnits="userSpaceOnUse"><stop stop-color="#FF6122"/><stop offset="1" stop-color="#F22411"/></linearGradient></defs></svg>