<svg id="cloudy" xmlns="http://www.w3.org/2000/svg" xmlns:xlink="http://www.w3.org/1999/xlink" fill="none" viewBox="0 0 40 40"><mask id="a" height="40" maskUnits="userSpaceOnUse" width="40" x="0" y="0"><path d="m0 0h40v40h-40z" fill="#fff"/></mask><mask id="b" height="18" maskUnits="userSpaceOnUse" width="26" x="14" y="12"><path clip-rule="evenodd" d="m39.8508 21c0-2.3872-.9519-4.6766-2.6346-6.3641-1.6923-1.6875-3.9808-2.6359-6.3654-2.6359-7.1634 0-16 0-16 0v18h16c2.3846 0 4.6731-.9484 6.3654-2.6359 1.6827-1.6875 2.6346-3.9769 2.6346-6.3641z" fill="#fff" fill-rule="evenodd"/></mask><mask id="c" height="14" maskUnits="userSpaceOnUse" width="18" x="0" y="27"><path clip-rule="evenodd" d="m.38489 33.6911c0-1.7308.68538-3.3898 1.91077-4.6132 1.22538-1.2235 2.87999-1.911 4.61076-1.911h10.48148v13.05s-5.6838 0-10.48148 0c-1.73077 0-3.38538-.6876-4.61076-1.911-1.22539-1.2235-1.91077-2.8825-1.91077-4.6132 0-.0008 0-.0008 0-.0016z" fill="#fff" fill-rule="evenodd"/></mask><g mask="url(#a)"><path clip-rule="evenodd" d="m39.8508 21c0-2.3872-.9519-4.6766-2.6346-6.3641-1.6923-1.6875-3.9808-2.6359-6.3654-2.6359-7.1634 0-16 0-16 0v18h16c2.3846 0 4.6731-.9484 6.3654-2.6359 1.6827-1.6875 2.6346-3.9769 2.6346-6.3641z" fill="#acacac" fill-rule="evenodd"/><path clip-rule="evenodd" d="m39.8508 21c0-2.3872-.9519-4.6766-2.6346-6.3641-1.6923-1.6875-3.9808-2.6359-6.3654-2.6359-7.1634 0-16 0-16 0v18h16c2.3846 0 4.6731-.9484 6.3654-2.6359 1.6827-1.6875 2.6346-3.9769 2.6346-6.3641z" fill="#d5d5d5" fill-rule="evenodd"/><g mask="url(#b)"><path clip-rule="evenodd" d="m23.8508 0v19h4.19c2.31 0 4.4-1.377 5.31-3.5s3-3.5 5.31-3.5h1.19v-12z" fill="#999" fill-rule="evenodd"/></g><g clip-rule="evenodd" fill-rule="evenodd"><path d="m14.8499 29.9995c8.2842 0 15-6.7157 15-15 0-8.28426-6.7158-14.99998828-15-14.99998828-8.28432 0-15.000046 6.71572828-15.000046 14.99998828 0 8.2843 6.715726 15 15.000046 15z" fill="#d5d5d5"/><path d="m.38489 33.6911c0-1.7308.68538-3.3898 1.91077-4.6132 1.22538-1.2235 2.87999-1.911 4.61076-1.911h10.48148v13.05s-5.6838 0-10.48148 0c-1.73077 0-3.38538-.6876-4.61076-1.911-1.22539-1.2235-1.91077-2.8825-1.91077-4.6132 0-.0008 0-.0008 0-.0016z" fill="#d5d5d5"/><path d="m.38489 33.6911c0-1.7308.68538-3.3898 1.91077-4.6132 1.22538-1.2235 2.87999-1.911 4.61076-1.911h10.48148v13.05s-5.6838 0-10.48148 0c-1.73077 0-3.38538-.6876-4.61076-1.911-1.22539-1.2235-1.91077-2.8825-1.91077-4.6132 0-.0008 0-.0008 0-.0016z" fill="#e7e7e7"/></g><g mask="url(#c)"><path clip-rule="evenodd" d="m11.8979 19.4669v13.775s-1.1447 0-2.41915 0c-2.02319 0-3.85919-1.2107-4.65119-3.0761v-.0008c-.5184-1.2114-1.7064-1.9981-3.02399-1.9981-.756 0-1.425602 0-1.425602 0v-8.7z" fill="#999" fill-rule="evenodd"/></g><path clip-rule="evenodd" d="m17.3818 40.167c-5.5228 0-10.00001-4.4772-10.00001-10 0-5.5229 4.47721-10 10.00001-10 5.5229 0 10 4.4771 10 10 0 5.5228-4.4771 10-10 10z" fill="#e7e7e7" fill-rule="evenodd"/></g></svg>