<svg id="covid" xmlns="http://www.w3.org/2000/svg" class="covid-speed-histogram desk-notif-card__covid-histogram" focusable="false" width="41"><rect x="0" y="0.1%" width="2" height="99.9%" rx="1.5" ry="1.5" fill="#d1352b"></rect><rect x="3" y="0.0%" width="2" height="100.0%" rx="1.5" ry="1.5" fill="#d1352b"></rect><rect x="6" y="1.0%" width="2" height="99.0%" rx="1.5" ry="1.5" fill="#e95b3b"></rect><rect x="9" y="2.2%" width="2" height="97.8%" rx="1.5" ry="1.5" fill="#e95b3b"></rect><rect x="12" y="5.0%" width="2" height="95.0%" rx="1.5" ry="1.5" fill="#e95b3b"></rect><rect x="15" y="5.9%" width="2" height="94.1%" rx="1.5" ry="1.5" fill="#e95b3b"></rect><rect x="18" y="7.4%" width="2" height="92.6%" rx="1.5" ry="1.5" fill="#ee924f"></rect><rect x="21" y="5.6%" width="2" height="94.4%" rx="1.5" ry="1.5" fill="#e95b3b"></rect><rect x="24" y="7.2%" width="2" height="92.8%" rx="1.5" ry="1.5" fill="#e95b3b"></rect><rect x="27" y="8.1%" width="2" height="91.9%" rx="1.5" ry="1.5" fill="#ee924f"></rect><rect x="30" y="9.1%" width="2" height="90.9%" rx="1.5" ry="1.5" fill="#ee924f"></rect><rect x="33" y="12.4%" width="2" height="87.6%" rx="1.5" ry="1.5" fill="#ee924f"></rect><rect x="36" y="12.3%" width="2" height="87.7%" rx="1.5" ry="1.5" fill="#ee924f"></rect><rect x="39" y="12.0%" width="2" height="88.0%" rx="1.5" ry="1.5" fill="#ee924f"></rect></svg>