<svg id="covid" class="svg svelte-wru7va" viewBox="0 0 100 100" preserveAspectRatio="none" aria-describedby="covid-chart-desc"><desc id="covid-chart-desc" class="svelte-wru7va">За последние сутки новых случаев: 2357.</desc><path class="chart svelte-wru7va" d="M 0,97 C 0.02958579881656805,97 0.08875739644970415,97 0.14792899408284024,97 C 0.20710059171597633,97 0.23668639053254437,97 0.2958579881656805,97 C 0.3550295857988166,97 0.38461538461538464,97 0.44378698224852076,97 C 0.5029585798816568,97 0.5325443786982249,97 0.591715976331361,97 C 0.650887573964497,97 0.6804733727810651,97 0.7396449704142012,97 C 0.7988165680473372,97 0.8284023668639054,97 0.8875739644970415,97 C 0.9467455621301776,97 0.9763313609467456,97 1.0355029585798816,97 C 1.0946745562130178,97 1.1242603550295858,97 1.183431952662722,97 C 1.2426035502958581,97 1.272189349112426,97 1.3313609467455623,97 C 1.3905325443786984,97 1.4201183431952662,97 1.4792899408284024,97 C 1.5384615384615385,97 1.5680473372781065,97 1.6272189349112427,97 C 1.6863905325443789,97 1.7159763313609468,97 1.775147928994083,97 C 1.8343195266272192,97 1.8639053254437872,97 1.9230769230769231,97 C 1.982248520710059,97 2.0118343195266273,97 2.0710059171597632,97 C 2.130177514792899,97 2.1597633136094676,97 2.2189349112426036,97 C 2.2781065088757395,97 2.307692307692308,97 2.366863905325444,97 C 2.42603550295858,97 2.4556213017751483,97 2.514792899408284,97 C 2.57396449704142,97 2.6035502958579886,97 2.6627218934911245,97 C 2.7218934911242605,97 2.7514792899408285,97 2.8106508875739644,97 C 2.8698224852071004,97 2.899408284023669,97 2.9585798816568047,97 C 3.0177514792899407,97 3.047337278106509,97 3.106508875739645,97 C 3.165680473372781,97 3.1952662721893494,97 3.2544378698224854,97 C 3.3136094674556213,97 3.3431952662721898,97.30508771929824 3.4023668639053257,97 C 3.4615384615384617,96.69491228070176 3.49112426035503,95.75491228070176 3.550295857988166,95.47456140350877 C 3.609467455621302,95.19421052631579 3.63905325443787,95.61679824561404 3.698224852071006,95.5982456140351 C 3.757396449704142,95.57969298245615 3.7869822485207103,95.33644736842105 3.8461538461538463,95.38179824561404 C 3.905325443786982,95.42714912280702 3.9349112426035506,95.90745614035087 3.9940828402366866,95.825 C 4.053254437869823,95.74254385964913 4.0828402366863905,94.73451754385965 4.1420118343195265,94.96951754385965 C 4.201183431952662,95.20451754385965 4.230769230769231,97.03092105263158 4.289940828402367,97 C 4.349112426035503,96.96907894736842 4.378698224852071,96.16307017543859 4.437869822485207,94.81491228070175 C 4.497041420118343,93.4667543859649 4.5266272189349115,91.04872807017543 4.585798816568047,90.25921052631578 C 4.644970414201183,89.46969298245614 4.674556213017752,90.44267543859648 4.733727810650888,90.8673245614035 C 4.792899408284024,91.29197368421053 4.822485207100592,92.05057017543861 4.881656804733728,92.38245614035088 C 4.940828402366864,92.71434210526316 4.9704142011834325,92.70815789473684 5.029585798816568,92.5267543859649 C 5.088757396449704,92.34535087719297 5.118343195266273,91.79907894736843 5.177514792899409,91.47543859649123 C 5.236686390532545,91.15179824561403 5.266272189349113,91.24043859649122 5.325443786982249,90.90855263157894 C 5.384615384615385,90.57666666666667 5.4142011834319534,89.95824561403509 5.473372781065089,89.81600877192983 C 5.532544378698225,89.67377192982457 5.562130177514793,90.52719298245614 5.621301775147929,90.19736842105263 C 5.680473372781065,89.86754385964912 5.710059171597633,89.12337719298246 5.769230769230769,88.16688596491228 C 5.828402366863905,87.2103947368421 5.8579881656804735,85.7715350877193 5.9171597633136095,85.41491228070176 C 5.976331360946745,85.05828947368421 6.005917159763314,86.75894736842105 6.06508875739645,86.38377192982456 C 6.124260355029586,86.00859649122808 6.153846153846154,84.20899122807018 6.21301775147929,83.5390350877193 C 6.272189349112426,82.86907894736842 6.3017751479289945,83.41122807017544 6.3609467455621305,83.03399122807018 C 6.420118343195266,82.65675438596492 6.449704142011835,82.51657894736842 6.508875739644971,81.65285087719298 C 6.568047337278107,80.78912280701753 6.597633136094675,78.47004385964911 6.656804733727811,78.71535087719298 C 6.715976331360947,78.96065789473684 6.7455621301775155,83.26074561403507 6.8047337278106514,82.87938596491227 C 6.863905325443787,82.49802631578947 6.893491124260356,79.44508771929824 6.952662721893492,76.80855263157895 C 7.011834319526628,74.17201754385965 7.041420118343196,73.01763157894736 7.100591715976332,69.69671052631578 C 7.159763313609468,66.37578947368421 7.189349112426036,58.919692982456134 7.2485207100591715,60.20394736842105 C 7.3076923076923075,61.48820175438596 7.337278106508876,75.11407894736843 7.396449704142012,76.11798245614035 C 7.455621301775148,77.12188596491228 7.485207100591716,66.29951754385965 7.544378698224852,65.2234649122807 C 7.603550295857988,64.14741228070176 7.633136094674556,68.42070175438596 7.6923076923076925,70.73771929824561 C 7.7514792899408285,73.05473684210526 7.781065088757397,77.65166666666667 7.840236686390533,76.80855263157895 C 7.899408284023669,75.96543859649123 7.928994082840237,67.86824561403508 7.988165680473373,66.52214912280701 C 8.04733727810651,65.17605263157894 8.076923076923078,70.1069298245614 8.136094674556213,70.0780701754386 C 8.19526627218935,70.04921052631579 8.224852071005916,66.91175438596491 8.284023668639053,66.37785087719298 C 8.34319526627219,65.84394736842106 8.372781065088757,67.62293859649122 8.431952662721894,67.40855263157894 C 8.491124260355031,67.19416666666666 8.520710059171599,63.963947368421046 8.579881656804734,65.30592105263158 C 8.63905325443787,66.6478947368421 8.668639053254438,74.15552631578947 8.727810650887575,74.11842105263158 C 8.786982248520712,74.08131578947368 8.81656804733728,67.88473684210526 8.875739644970414,65.1203947368421 C 8.934911242603551,62.35605263157894 8.96449704142012,64.96578947368421 9.023668639053255,60.296710526315785 C 9.082840236686392,55.627631578947366 9.112426035502958,46.6955701754386 9.171597633136095,41.775 C 9.230769230769232,36.8544298245614 9.260355029585801,36.59469298245613 9.319526627218936,35.6938596491228 C 9.378698224852073,34.79302631578947 9.40828402366864,36.788464912280695 9.467455621301776,37.27083333333333 C 9.52662721893491,37.75320175438596 9.556213017751478,38.235570175438596 9.615384615384615,38.10570175438596 C 9.674556213017752,37.97583333333333 9.704142011834321,38.66021929824561 9.763313609467456,36.62149122807017 C 9.822485207100593,34.58276315789473 9.852071005917159,27.88732456140351 9.911242603550296,27.912061403508773 C 9.970414201183432,27.936798245614035 10,34.60956140350876 10.059171597633137,36.74517543859648 C 10.118343195266274,38.8807894736842 10.14792899408284,37.98201754385964 10.207100591715976,38.590131578947364 C 10.266272189349113,39.19824561403509 10.29585798816568,40.8205701754386 10.355029585798817,39.785745614035086 C 10.414201183431954,38.750921052631575 10.44378698224852,33.08824561403508 10.502958579881657,33.41600877192982 C 10.562130177514794,33.743771929824554 10.591715976331361,38.40254385964912 10.650887573964498,41.42456140350877 C 10.710059171597635,44.446578947368415 10.7396449704142,47.12434210526315 10.798816568047338,48.52609649122807 C 10.857988165680474,49.92785087719298 10.887573964497042,48.52609649122807 10.946745562130179,48.43333333333333 C 11.005917159763316,48.34057017543859 11.035502958579881,45.57416666666666 11.094674556213018,48.06228070175438 C 11.153846153846155,50.5503947368421 11.183431952662723,59.03307017543859 11.242603550295858,60.873903508771924 C 11.301775147928995,62.71473684210526 11.331360946745562,56.71605263157894 11.390532544378699,57.26644736842105 C 11.449704142011836,57.816842105263156 11.479289940828401,62.98684210526315 11.538461538461538,63.62587719298245 C 11.597633136094675,64.26491228070175 11.627218934911243,59.350526315789466 11.68639053254438,60.46162280701754 C 11.745562130177516,61.572719298245616 11.775147928994082,67.87855263157896 11.834319526627219,69.18135964912281 C 11.893491124260356,70.48416666666667 11.923076923076923,67.57140350877194 11.98224852071006,66.97565789473684 C 12.041420118343197,66.37991228070175 12.071005917159763,66.77364035087719 12.1301775147929,66.20263157894736 C 12.189349112426036,65.63162280701754 12.218934911242604,63.147631578947376 12.27810650887574,64.12061403508773 C 12.337278106508878,65.09359649122808 12.366863905325443,69.7688596491228 12.42603550295858,71.06754385964912 C 12.485207100591717,72.36622807017544 12.514792899408285,71.26131578947367 12.573964497041421,70.61403508771929 C 12.633136094674558,69.9667543859649 12.662721893491124,66.96535087719298 12.721893491124261,67.83114035087719 C 12.781065088757396,68.69692982456141 12.810650887573964,73.34333333333333 12.8698224852071,74.94298245614036 C 12.928994082840237,76.54263157894738 12.958579881656805,76.2251754385965 13.017751479289942,75.82938596491228 C 13.076923076923078,75.43359649122806 13.106508875739644,73.6092543859649 13.165680473372781,72.9640350877193 C 13.224852071005918,72.31881578947369 13.254437869822485,73.14543859649123 13.313609467455622,72.60328947368421 C 13.372781065088759,72.0611403508772 13.402366863905325,70.10899122807017 13.461538461538462,70.2532894736842 C 13.520710059171599,70.39758771929824 13.550295857988166,72.68780701754385 13.609467455621303,73.32478070175438 C 13.66863905325444,73.96175438596491 13.698224852071005,72.5002192982456 13.757396449704142,73.43815789473683 C 13.81656804733728,74.37609649122807 13.846153846153847,77.42078947368421 13.905325443786984,78.01447368421053 C 13.96449704142012,78.60815789473685 13.994082840236686,76.43337719298245 14.053254437869823,76.40657894736842 C 14.11242603550296,76.37978070175438 14.142011834319527,77.86811403508773 14.201183431952664,77.88048245614036 C 14.260355029585801,77.89285087719298 14.289940828402369,76.67662280701755 14.349112426035504,76.46842105263158 C 14.408284023668639,76.26021929824562 14.437869822485206,76.85802631578949 14.497041420118343,76.83947368421053 C 14.55621301775148,76.82092105263158 14.585798816568047,75.58407894736841 14.644970414201184,76.37565789473683 C 14.704142011834321,77.16723684210525 14.733727810650887,79.13587719298245 14.792899408284024,80.79736842105262 C 14.85207100591716,82.4588596491228 14.881656804733728,84.40276315789474 14.940828402366865,84.68311403508773 C 15.000000000000002,84.96346491228071 15.029585798816568,83.26899122807018 15.088757396449704,82.19912280701755 C 15.147928994082841,81.12925438596491 15.177514792899409,79.45127192982457 15.236686390532546,79.33377192982456 C 15.295857988165682,79.21627192982456 15.325443786982248,81.1230701754386 15.384615384615385,81.61162280701754 C 15.443786982248522,82.10017543859648 15.47337278106509,81.50030701754386 15.532544378698226,81.7765350877193 C 15.591715976331363,82.05276315789473 15.62130177514793,82.86701754385965 15.680473372781066,82.99276315789473 C 15.7396449704142,83.11850877192981 15.769230769230768,81.79921052631579 15.828402366863905,82.40526315789474 C 15.887573964497042,83.01131578947368 15.91715976331361,85.24793859649124 15.976331360946746,86.02302631578948 C 16.035502958579883,86.79811403508772 16.065088757396452,86.42706140350877 16.124260355029588,86.28070175438596 C 16.183431952662723,86.13434210526314 16.213017751479292,85.32627192982456 16.272189349112427,85.29122807017544 C 16.331360946745562,85.25618421052631 16.36094674556213,85.75916666666667 16.420118343195266,86.10548245614035 C 16.4792899408284,86.45179824561403 16.50887573964497,87.04548245614035 16.568047337278106,87.02280701754385 C 16.62721893491124,87.00013157894736 16.656804733727814,86.22504385964912 16.71597633136095,85.9921052631579 C 16.775147928994084,85.75916666666667 16.804733727810653,85.32833333333333 16.86390532544379,85.85811403508772 C 16.923076923076923,86.38789473684211 16.952662721893493,88.23697368421053 17.011834319526628,88.64100877192982 C 17.071005917159763,89.04504385964911 17.100591715976332,87.88241228070174 17.159763313609467,87.8782894736842 C 17.218934911242602,87.87416666666667 17.248520710059175,88.34210526315789 17.30769230769231,88.6203947368421 C 17.366863905325445,88.89868421052631 17.396449704142015,89.07184210526316 17.45562130177515,89.26973684210526 C 17.514792899408285,89.46763157894736 17.544378698224854,89.67583333333333 17.60355029585799,89.60986842105262 C 17.662721893491124,89.54390350877192 17.692307692307693,88.99763157894736 17.75147928994083,88.93991228070175 C 17.810650887573964,88.88219298245613 17.840236686390533,88.96877192982456 17.899408284023668,89.32127192982456 C 17.958579881656803,89.67377192982457 17.988165680473376,90.53131578947368 18.04733727810651,90.70241228070175 C 18.106508875739646,90.87350877192982 18.136094674556215,90.27570175438596 18.19526627218935,90.17675438596491 C 18.254437869822485,90.07780701754386 18.284023668639055,90.2447807017544 18.34319526627219,90.2076754385965 C 18.402366863905325,90.1705701754386 18.431952662721894,89.9726754385965 18.49112426035503,89.99122807017544 C 18.550295857988164,90.00978070175438 18.579881656804737,90.3107456140351 18.639053254437872,90.30043859649123 C 18.698224852071007,90.29013157894737 18.727810650887577,89.89640350877193 18.78698224852071,89.93969298245614 C 18.846153846153847,89.98298245614035 18.875739644970416,90.38495614035087 18.93491124260355,90.51688596491228 C 18.994082840236686,90.64881578947369 19.023668639053255,90.47359649122808 19.08284023668639,90.59934210526316 C 19.142011834319526,90.72508771929824 19.171597633136095,91.17859649122806 19.23076923076923,91.14561403508772 C 19.289940828402365,91.11263157894737 19.319526627218938,90.66118421052632 19.378698224852073,90.4344298245614 C 19.437869822485208,90.2076754385965 19.467455621301777,90.09842105263158 19.526627218934912,90.01184210526316 C 19.585798816568047,89.92526315789473 19.615384615384617,89.98916666666668 19.674556213017752,90.0015350877193 C 19.733727810650887,90.01390350877193 19.763313609467456,89.93763157894736 19.82248520710059,90.07368421052631 C 19.881656804733726,90.20973684210526 19.9112426035503,90.59109649122807 19.970414201183434,90.68179824561403 C 20.02958579881657,90.7725 20.05917159763314,90.35815789473685 20.118343195266274,90.52719298245614 C 20.17751479289941,90.69622807017544 20.207100591715978,91.41771929824561 20.266272189349113,91.52697368421053 C 20.325443786982248,91.63622807017545 20.355029585798817,91.17035087719297 20.414201183431953,91.0734649122807 C 20.473372781065088,90.97657894736842 20.502958579881657,91.07552631578947 20.562130177514792,91.04254385964913 C 20.621301775147927,91.00956140350878 20.6508875739645,90.90855263157894 20.710059171597635,90.90855263157894 C 20.76923076923077,90.90855263157894 20.79881656804734,91.06521929824562 20.857988165680474,91.04254385964913 C 20.91715976331361,91.01986842105264 20.94674556213018,90.91885964912281 21.005917159763314,90.79517543859649 C 21.06508875739645,90.67149122807017 21.09467455621302,90.43649122807017 21.153846153846153,90.42412280701754 C 21.21301775147929,90.41175438596491 21.24260355029586,90.74776315789474 21.301775147928996,90.73333333333333 C 21.36094674556213,90.71890350877193 21.3905325443787,90.43442982456139 21.449704142011836,90.35197368421052 C 21.50887573964497,90.26951754385965 21.53846153846154,90.39938596491228 21.597633136094675,90.32105263157895 C 21.65680473372781,90.24271929824562 21.68639053254438,90.05513157894737 21.745562130177515,89.96030701754385 C 21.80473372781065,89.86548245614034 21.834319526627223,89.82837719298246 21.893491124260358,89.8469298245614 C 21.952662721893493,89.86548245614034 21.982248520710062,90.00565789473684 22.041420118343197,90.05307017543859 C 22.100591715976332,90.10048245614034 22.1301775147929,90.09223684210527 22.189349112426036,90.08399122807018 C 22.24852071005917,90.07574561403509 22.27810650887574,90.06131578947368 22.337278106508876,90.01184210526316 C 22.39644970414201,89.96236842105263 22.42603550295858,89.86135964912282 22.485207100591715,89.83662280701755 C 22.54437869822485,89.81188596491228 22.573964497041423,89.8242543859649 22.63313609467456,89.88815789473684 C 22.692307692307693,89.95206140350876 22.721893491124263,90.16232456140351 22.781065088757398,90.1561403508772 C 22.840236686390533,90.14995614035088 22.869822485207102,89.9128947368421 22.928994082840237,89.85723684210527 C 22.988165680473372,89.80157894736843 23.01775147928994,89.86548245614036 23.076923076923077,89.87785087719298 C 23.13609467455621,89.89021929824561 23.165680473372785,89.90464912280702 23.22485207100592,89.91907894736842 C 23.284023668639055,89.93350877192982 23.313609467455624,89.94793859649123 23.37278106508876,89.95 C 23.431952662721894,89.95206140350878 23.461538461538463,89.94381578947369 23.5207100591716,89.92938596491229 C 23.579881656804734,89.91495614035088 23.609467455621303,89.8840350877193 23.668639053254438,89.87785087719298 C 23.727810650887573,89.87166666666667 23.757396449704142,89.90464912280702 23.816568047337277,89.8984649122807 C 23.875739644970412,89.89228070175439 23.905325443786985,89.85723684210527 23.96449704142012,89.8469298245614 C 24.023668639053255,89.83662280701753 24.053254437869825,89.83662280701753 24.11242603550296,89.8469298245614 C 24.171597633136095,89.85723684210527 24.201183431952664,89.89434210526316 24.2603550295858,89.8984649122807 C 24.319526627218934,89.90258771929824 24.349112426035504,89.86548245614034 24.40828402366864,89.86754385964912 C 24.467455621301774,89.8696052631579 24.497041420118347,89.91495614035088 24.55621301775148,89.90877192982457 C 24.615384615384617,89.90258771929825 24.644970414201186,89.83662280701755 24.70414201183432,89.83662280701755 C 24.763313609467456,89.83662280701755 24.792899408284025,89.89846491228072 24.85207100591716,89.90877192982457 C 24.911242603550296,89.91907894736842 24.940828402366865,89.8984649122807 25,89.88815789473684 C 25.059171597633135,89.87785087719297 25.088757396449708,89.85929824561404 25.147928994082843,89.85723684210527 C 25.207100591715978,89.85517543859649 25.236686390532547,89.86754385964912 25.295857988165682,89.87785087719298 C 25.355029585798817,89.88815789473685 25.384615384615387,89.90671052631579 25.443786982248522,89.90877192982457 C 25.502958579881657,89.91083333333334 25.532544378698226,89.88609649122806 25.59171597633136,89.88815789473684 C 25.650887573964496,89.89021929824561 25.680473372781066,89.75622807017544 25.7396449704142,89.91907894736842 C 25.798816568047336,90.0819298245614 25.82840236686391,90.57460526315789 25.887573964497044,90.70241228070175 C 25.94674556213018,90.83021929824561 25.976331360946748,90.70241228070176 26.035502958579883,90.55811403508773 C 26.09467455621302,90.41381578947369 26.124260355029588,90.01184210526316 26.183431952662723,89.98092105263157 C 26.242603550295858,89.94999999999999 26.272189349112427,90.31280701754386 26.331360946745562,90.40350877192982 C 26.390532544378697,90.49421052631578 26.42011834319527,90.46328947368421 26.479289940828405,90.4344298245614 C 26.53846153846154,90.4055701754386 26.56804733727811,90.34166666666665 26.627218934911244,90.25921052631578 C 26.68639053254438,90.17675438596491 26.71597633136095,90.10666666666667 26.775147928994084,90.02214912280702 C 26.83431952662722,89.93763157894738 26.86390532544379,89.85311403508773 26.923076923076923,89.83662280701755 C 26.98224852071006,89.82013157894737 27.011834319526628,89.82837719298246 27.071005917159763,89.93969298245614 C 27.130177514792898,90.05100877192982 27.15976331360947,90.26951754385965 27.218934911242606,90.39320175438597 C 27.27810650887574,90.51688596491229 27.30769230769231,90.65912280701755 27.366863905325445,90.55811403508773 C 27.42603550295858,90.4571052631579 27.45562130177515,90.02627192982456 27.514792899408285,89.88815789473684 C 27.57396449704142,89.75004385964911 27.60355029585799,89.82837719298244 27.662721893491124,89.86754385964912 C 27.72189349112426,89.90671052631579 27.751479289940832,89.9355701754386 27.810650887573967,90.08399122807018 C 27.869822485207102,90.23241228070175 27.89940828402367,90.64881578947369 27.958579881656807,90.60964912280701 C 28.01775147928994,90.57048245614034 28.04733727810651,90.04276315789473 28.106508875739646,89.88815789473684 C 28.16568047337278,89.73355263157895 28.19526627218935,89.7376754385965 28.254437869822485,89.83662280701755 C 28.31360946745562,89.9355701754386 28.343195266272193,90.3828947368421 28.40236686390533,90.3828947368421 C 28.461538461538463,90.3828947368421 28.491124260355033,89.95206140350878 28.550295857988168,89.83662280701755 C 28.609467455621303,89.72118421052632 28.639053254437872,89.75416666666666 28.698224852071007,89.80570175438596 C 28.757396449704142,89.85723684210527 28.78698224852071,89.99535087719298 28.846153846153847,90.09429824561403 C 28.90532544378698,90.19324561403508 28.93491124260355,90.3540350877193 28.994082840236686,90.30043859649123 C 29.05325443786982,90.24684210526317 29.082840236686394,89.99122807017544 29.14201183431953,89.82631578947368 C 29.201183431952664,89.66140350877193 29.230769230769234,89.58719298245613 29.28994082840237,89.47587719298245 C 29.349112426035504,89.36456140350877 29.378698224852073,89.26973684210526 29.437869822485208,89.26973684210526 C 29.497041420118343,89.26973684210526 29.526627218934912,89.5892543859649 29.585798816568047,89.47587719298245 C 29.644970414201183,89.3625 29.674556213017755,88.89868421052631 29.73372781065089,88.70285087719299 C 29.792899408284025,88.50701754385966 29.822485207100595,88.61008771929825 29.88165680473373,88.4967105263158 C 29.940828402366865,88.38333333333334 29.970414201183434,88.32149122807017 30.02958579881657,88.1359649122807 C 30.088757396449704,87.95043859649122 30.118343195266274,87.81644736842105 30.17751479289941,87.56907894736842 C 30.236686390532544,87.3217105263158 30.266272189349113,87.0125 30.325443786982248,86.89912280701755 C 30.384615384615383,86.7857456140351 30.414201183431956,87.14649122807018 30.47337278106509,87.00219298245614 C 30.532544378698226,86.8578947368421 30.562130177514796,87.3938596491228 30.62130177514793,86.17763157894737 C 30.680473372781066,84.96140350877194 30.710059171597635,82.45061403508772 30.76923076923077,80.92105263157895 C 30.828402366863905,79.39149122807017 30.857988165680474,79.4698245614035 30.91715976331361,78.5298245614035 C 30.976331360946745,77.5898245614035 31.005917159763317,77.09714912280701 31.065088757396452,76.22105263157894 C 31.124260355029588,75.34495614035087 31.153846153846157,74.73478070175439 31.213017751479292,74.14934210526316 C 31.272189349112427,73.56390350877193 31.301775147928996,73.48144736842106 31.36094674556213,73.29385964912281 C 31.420118343195266,73.10627192982456 31.449704142011836,73.46701754385964 31.50887573964497,73.21140350877192 C 31.568047337278106,72.9557894736842 31.597633136094675,72.83210526315789 31.65680473372781,72.01578947368421 C 31.715976331360945,71.19947368421053 31.745562130177518,70.0780701754386 31.804733727810653,69.12982456140351 C 31.86390532544379,68.18157894736842 31.893491124260358,68.55881578947368 31.952662721893493,67.27456140350877 C 32.01183431952663,65.99030701754386 32.0414201183432,64.05464912280702 32.100591715976336,62.70855263157895 C 32.159763313609474,61.36245614035088 32.18934911242604,62.10043859649122 32.248520710059175,60.54407894736842 C 32.307692307692314,58.987719298245615 32.337278106508876,54.29184210526316 32.396449704142015,54.92675438596491 C 32.45562130177515,55.56166666666667 32.485207100591715,62.15403508771929 32.544378698224854,63.71864035087719 C 32.60355029585799,65.28324561403508 32.633136094674555,63.72276315789473 32.69230769230769,62.74978070175438 C 32.75147928994083,61.77679824561403 32.781065088757394,60.465745614035086 32.84023668639053,58.853728070175436 C 32.89940828402367,57.241710526315785 32.928994082840234,56.33881578947368 32.98816568047337,54.68969298245614 C 33.04733727810651,53.040570175438596 33.07692307692307,51.205921052631574 33.13609467455621,50.608114035087716 C 33.19526627218935,50.01030701754386 33.22485207100591,51.94184210526315 33.28402366863905,51.700657894736835 C 33.34319526627219,51.45947368421052 33.37278106508876,49.76912280701754 33.4319526627219,49.402192982456135 C 33.491124260355036,49.03526315789473 33.5207100591716,48.4725 33.57988165680474,49.86600877192982 C 33.639053254437876,51.259517543859644 33.66863905325444,57.3509649122807 33.72781065088758,56.36973684210526 C 33.786982248520715,55.38850877192982 33.81656804733728,46.41521929824561 33.875739644970416,44.959868421052626 C 33.934911242603555,43.50451754385964 33.96449704142012,48.18802631578947 34.023668639053255,49.09298245614035 C 34.082840236686394,49.997938596491224 34.112426035502956,50.98535087719298 34.171597633136095,49.484649122807014 C 34.23076923076923,47.98394736842105 34.260355029585796,42.391359649122805 34.319526627218934,41.589473684210525 C 34.37869822485207,40.787587719298244 34.408284023668635,43.44061403508772 34.467455621301774,45.47521929824561 C 34.52662721893491,47.509824561403505 34.55621301775148,50.554517543859646 34.61538461538462,51.762499999999996 C 34.67455621301776,52.970482456140346 34.70414201183432,53.75999999999999 34.76331360946746,51.51513157894736 C 34.8224852071006,49.27026315789473 34.85207100591716,40.62061403508772 34.9112426035503,40.53815789473684 C 34.97041420118344,40.45570175438596 35,48.9940350877193 35.05917159763314,51.10285087719298 C 35.11834319526628,53.21166666666666 35.14792899408284,52.67157894736842 35.20710059171598,51.08223684210526 C 35.26627218934912,49.4928947368421 35.29585798816568,42.861359649122804 35.35502958579882,43.15614035087719 C 35.414201183431956,43.45092105263157 35.44378698224852,49.35271929824561 35.50295857988166,52.556140350877186 C 35.562130177514796,55.75956140350876 35.59171597633136,60.397719298245605 35.650887573964496,59.17324561403508 C 35.710059171597635,57.94877192982456 35.7396449704142,49.7278947368421 35.798816568047336,46.43377192982456 C 35.857988165680474,43.139649122807015 35.887573964497044,42.79745614035087 35.94674556213018,42.70263157894736 C 36.00591715976332,42.607807017543855 36.03550295857988,45.94521929824561 36.09467455621302,45.959649122807015 C 36.15384615384616,45.97407894736842 36.18343195266272,42.45320175438596 36.24260355029586,42.77478070175438 C 36.301775147929,43.0963596491228 36.33136094674556,47.338728070175435 36.3905325443787,47.56754385964912 C 36.44970414201184,47.796359649122806 36.4792899408284,46.042105263157886 36.53846153846154,43.9188596491228 C 36.59763313609468,41.795614035087716 36.62721893491124,37.16776315789473 36.68639053254438,36.95131578947368 C 36.74556213017752,36.73486842105263 36.77514792899408,43.716842105263154 36.83431952662722,42.83662280701754 C 36.89349112426036,41.95640350877193 36.92307692307692,33.733464912280695 36.98224852071006,32.55021929824561 C 37.0414201183432,31.36697368421052 37.07100591715976,35.88557017543859 37.1301775147929,36.9203947368421 C 37.18934911242604,37.95521929824561 37.218934911242606,39.92592105263157 37.278106508875744,37.724342105263155 C 37.33727810650888,35.52276315789474 37.366863905325445,26.223771929824558 37.426035502958584,25.912499999999994 C 37.48520710059172,25.60122807017543 37.51479289940829,31.17938596491227 37.57396449704142,36.167982456140344 C 37.63313609467456,41.156578947368416 37.662721893491124,51.05131578947368 37.72189349112426,50.85548245614035 C 37.7810650887574,50.65964912280702 37.81065088757396,38.274736842105256 37.8698224852071,35.18881578947368 C 37.92899408284024,32.1028947368421 37.9585798816568,36.31228070175438 38.01775147928994,35.425877192982455 C 38.07692307692308,34.53947368421053 38.10650887573964,31.3690350877193 38.16568047337278,30.756798245614036 C 38.22485207100592,30.14456140350877 38.25443786982248,32.22657894736842 38.31360946745562,32.364692982456134 C 38.37278106508876,32.50280701754385 38.40236686390532,30.64548245614035 38.46153846153846,31.44736842105263 C 38.5207100591716,32.24925438596491 38.55029585798817,31.867894736842103 38.609467455621306,36.37412280701754 C 38.668639053254445,40.88035087719298 38.69822485207101,55.12464912280702 38.757396449704146,53.978508771929825 C 38.816568047337284,52.83236842105263 38.84615384615385,36.266929824561394 38.905325443786985,30.643421052631567 C 38.964497041420124,25.01991228070174 38.994082840236686,27.3657894736842 39.053254437869825,25.860964912280693 C 39.11242603550296,24.356140350877187 39.142011834319526,22.44521929824561 39.201183431952664,23.119298245614033 C 39.2603550295858,23.793377192982454 39.289940828402365,28.608815789473688 39.349112426035504,29.23135964912281 C 39.40828402366864,29.85390350877193 39.437869822485204,24.71276315789473 39.49704142011834,26.23201754385964 C 39.55621301775148,27.75127192982455 39.58579881656805,32.33171052631578 39.64497041420118,36.82763157894736 C 39.70414201183432,41.32355263157894 39.73372781065088,49.20017543859649 39.79289940828402,48.71162280701754 C 39.85207100591716,48.22307017543859 39.88165680473373,41.049385964912275 39.94082840236687,34.38486842105263 C 40.00000000000001,27.72035087719298 40.02958579881657,17.95548245614035 40.08875739644971,15.389035087719293 C 40.14792899408285,12.822587719298237 40.17751479289941,19.243859649122793 40.23668639053255,21.552631578947356 C 40.295857988165686,23.861403508771918 40.32544378698225,25.265219298245608 40.38461538461539,26.9328947368421 C 40.443786982248525,28.600570175438595 40.47337278106509,29.32618421052631 40.532544378698226,29.89100877192982 C 40.591715976331365,30.455833333333327 40.62130177514793,27.035964912280697 40.680473372781066,29.757017543859646 C 40.739644970414204,32.478070175438596 40.76923076923077,46.023552631578944 40.828402366863905,43.49627192982456 C 40.887573964497044,40.96899122807017 40.917159763313606,20.57758771929824 40.976331360946745,17.120614035087712 C 41.03550295857988,13.663640350877184 41.065088757396445,26.712324561403502 41.124260355029584,26.211403508771923 C 41.18343195266272,25.710482456140344 41.21301775147929,15.943552631578935 41.27218934911243,14.616008771929813 C 41.33136094674557,13.288464912280691 41.36094674556213,18.101842105263152 41.42011834319527,19.57368421052631 C 41.47928994082841,21.045526315789466 41.50887573964497,17.275219298245606 41.56804733727811,21.975219298245605 C 41.62721893491125,26.675219298245604 41.65680473372781,38.67464912280701 41.71597633136095,43.07368421052631 C 41.77514792899409,47.47271929824561 41.80473372781065,47.058377192982455 41.86390532544379,43.9703947368421 C 41.92307692307693,40.88241228070175 41.952662721893496,31.900877192982456 42.01183431952663,27.63377192982456 C 42.071005917159766,23.366666666666667 42.10059171597633,22.412236842105266 42.15976331360947,22.63486842105263 C 42.218934911242606,22.857499999999995 42.24852071005917,27.118421052631568 42.30769230769231,28.74692982456139 C 42.366863905325445,30.375438596491215 42.396449704142015,29.23548245614035 42.45562130177515,30.777412280701753 C 42.51479289940829,32.31934210526316 42.544378698224854,34.38074561403508 42.60355029585799,36.45657894736841 C 42.66272189349113,38.53241228070175 42.69230769230769,39.41263157894736 42.75147928994083,41.156578947368416 C 42.81065088757397,42.90052631578947 42.84023668639053,47.84171052631579 42.89940828402367,45.17631578947368 C 42.95857988165681,42.51092105263158 42.98816568047337,31.764824561403504 43.04733727810651,27.829605263157887 C 43.10650887573965,23.894385964912274 43.13609467455621,24.980745614035083 43.19526627218935,25.50021929824561 C 43.25443786982249,26.01969298245614 43.28402366863905,31.098991228070172 43.34319526627219,30.426973684210523 C 43.40236686390533,29.754956140350874 43.43195266272189,24.898289473684205 43.49112426035503,22.14013157894736 C 43.55029585798817,19.381973684210518 43.57988165680473,16.58258771929824 43.63905325443787,16.63618421052631 C 43.69822485207101,16.68978070175438 43.72781065088758,17.986403508771915 43.786982248520715,22.408114035087706 C 43.846153846153854,26.8298245614035 43.875739644970416,40.73605263157894 43.934911242603555,38.74473684210526 C 43.99408284023669,36.75342105263158 44.023668639053255,15.879649122807013 44.082840236686394,12.451535087719293 C 44.14201183431953,9.023421052631573 44.171597633136095,20.11377192982455 44.23076923076923,21.604166666666657 C 44.28994082840237,23.094561403508763 44.319526627218934,18.470833333333328 44.37869822485207,19.903508771929822 C 44.43786982248521,21.336184210526316 44.46745562130178,26.238201754385965 44.52662721893491,28.767543859649123 C 44.58579881656805,31.29688596491228 44.61538461538461,30.532105263157888 44.67455621301775,32.55021929824561 C 44.73372781065089,34.56833333333333 44.76331360946745,36.49162280701754 44.82248520710059,38.858114035087716 C 44.88165680473373,41.22460526315789 44.91124260355029,46.28947368421052 44.97041420118343,44.382675438596486 C 45.02958579881657,42.47587719298245 45.05917159763314,30.97736842105263 45.11834319526628,29.324122807017545 C 45.177514792899416,27.67087719298246 45.20710059171598,33.82004385964912 45.26627218934912,36.11644736842105 C 45.325443786982255,38.41285087719298 45.35502958579882,36.5678947368421 45.414201183431956,40.806140350877186 C 45.473372781065095,45.04438596491227 45.502958579881664,53.47140350877193 45.562130177514796,57.30767543859649 C 45.621301775147934,61.14394736842105 45.650887573964496,62.03035087719298 45.710059171597635,59.9875 C 45.769230769230774,57.944649122807014 45.798816568047336,50.29065789473684 45.857988165680474,47.09342105263158 C 45.91715976331361,43.896184210526314 45.946745562130175,44.061096491228064 46.005917159763314,44.00131578947368 C 46.06508875739645,43.941535087719295 46.094674556213015,46.55745614035087 46.15384615384615,46.79451754385965 C 46.21301775147929,47.03157894736842 46.242603550295854,45.24640350877193 46.30177514792899,45.18662280701754 C 46.36094674556213,45.12684210526316 46.3905325443787,44.82381578947368 46.44970414201184,46.49561403508771 C 46.50887573964498,48.16741228070175 46.53846153846154,53.02201754385965 46.59763313609468,53.545614035087716 C 46.65680473372782,54.069210526315786 46.68639053254438,50.73179824561403 46.74556213017752,49.113596491228066 C 46.80473372781066,47.4953947368421 46.83431952662722,44.782587719298235 46.89349112426036,45.45460526315789 C 46.952662721893496,46.12662280701754 46.98224852071006,54.312456140350875 47.0414201183432,52.473684210526315 C 47.100591715976336,50.634912280701755 47.1301775147929,38.7632894736842 47.18934911242604,36.26074561403508 C 47.248520710059175,33.75820175438596 47.27810650887574,37.44811403508771 47.337278106508876,39.960964912280694 C 47.396449704142015,42.473815789473676 47.42603550295858,45.68754385964912 47.485207100591715,48.824999999999996 C 47.544378698224854,51.962456140350874 47.573964497041416,53.59714912280701 47.633136094674555,55.64824561403508 C 47.69230769230769,57.699342105263156 47.72189349112426,57.231403508771926 47.7810650887574,59.080482456140345 C 47.84023668639054,60.929561403508764 47.86982248520711,62.36429824561404 47.92899408284024,64.89364035087719 C 47.98816568047338,67.42298245614035 48.01775147928994,72.4342543859649 48.07692307692308,71.72719298245613 C 48.13609467455622,71.02013157894736 48.16568047337278,62.56425438596491 48.22485207100592,61.35833333333333 C 48.28402366863906,60.152412280701746 48.31360946745562,64.06907894736841 48.37278106508876,65.69758771929824 C 48.4319526627219,67.32609649122807 48.46153846153846,69.56684210526316 48.5207100591716,69.50087719298246 C 48.57988165680474,69.43491228070175 48.6094674556213,64.77820175438596 48.66863905325444,65.36776315789473 C 48.72781065088758,65.9573245614035 48.75739644970414,70.89850877192981 48.81656804733728,72.44868421052631 C 48.875739644970416,73.9988596491228 48.90532544378698,71.99517543859648 48.96449704142012,73.11864035087719 C 49.023668639053255,74.2421052631579 49.053254437869825,79.26162280701755 49.11242603550296,78.06600877192983 C 49.1715976331361,76.87039473684212 49.201183431952664,69.1236403508772 49.2603550295858,67.1405701754386 C 49.31952662721894,65.1575 49.349112426035504,67.18798245614035 49.40828402366864,68.15065789473684 C 49.46745562130178,69.11333333333333 49.49704142011834,70.89232456140351 49.55621301775148,71.95394736842105 C 49.61538461538462,73.0155701754386 49.64497041420118,72.6486403508772 49.70414201183432,73.45877192982456 C 49.76331360946746,74.26890350877193 49.79289940828402,74.80280701754386 49.85207100591716,76.00460526315788 C 49.9112426035503,77.20640350877191 49.94082840236686,78.45355263157894 50,79.46776315789474 C 50.05917159763314,80.48197368421053 50.0887573964497,81.88785087719297 50.14792899408284,81.07565789473684 C 50.20710059171598,80.2634649122807 50.23668639053255,76.41070175438595 50.295857988165686,75.40679824561403 C 50.355029585798825,74.4028947368421 50.38461538461539,76.30144736842105 50.443786982248525,76.05614035087719 C 50.502958579881664,75.81083333333332 50.532544378698226,74.17201754385964 50.591715976331365,74.18026315789473 C 50.6508875739645,74.18850877192982 50.680473372781066,75.09552631578947 50.739644970414204,76.09736842105264 C 50.79881656804734,77.0992105263158 50.828402366863905,78.27421052631578 50.887573964497044,79.18947368421053 C 50.94674556213018,80.10473684210527 50.976331360946745,80.08206140350877 51.03550295857988,80.67368421052632 C 51.09467455621302,81.26530701754386 51.124260355029584,83.08758771929824 51.18343195266272,82.14758771929824 C 51.24260355029586,81.20758771929825 51.27218934911242,77.41254385964912 51.33136094674556,75.97368421052632 C 51.3905325443787,74.53482456140351 51.42011834319526,74.79456140350877 51.4792899408284,74.95328947368421 C 51.53846153846154,75.11201754385965 51.56804733727811,75.5717105263158 51.62721893491125,76.76732456140351 C 51.68639053254439,77.96293859649123 51.71597633136095,80.63245614035088 51.77514792899409,80.93135964912281 C 51.834319526627226,81.23026315789474 51.86390532544379,77.95263157894736 51.92307692307693,78.26184210526316 C 51.982248520710066,78.57105263157895 52.01183431952663,81.3725 52.071005917159766,82.47741228070176 C 52.130177514792905,83.58232456140351 52.15976331360947,84.90162280701755 52.218934911242606,83.78640350877193 C 52.278106508875744,82.6711842105263 52.30769230769231,78.32368421052631 52.366863905325445,76.90131578947368 C 52.426035502958584,75.47894736842106 52.455621301775146,76.00048245614036 52.514792899408285,76.67456140350878 C 52.57396449704142,77.34864035087719 52.603550295857985,79.50899122807017 52.662721893491124,80.27171052631579 C 52.72189349112426,81.0344298245614 52.751479289940825,80.69429824561404 52.81065088757396,80.48815789473684 C 52.8698224852071,80.28201754385965 52.89940828402367,78.40820175438597 52.95857988165681,79.24100877192983 C 53.01775147928995,80.07381578947368 53.04733727810651,84.02140350877194 53.10650887573965,84.65219298245614 C 53.16568047337279,85.28298245614035 53.19526627218935,82.82372807017543 53.25443786982249,82.39495614035087 C 53.31360946745563,81.96618421052631 53.34319526627219,82.3413596491228 53.40236686390533,82.50833333333333 C 53.46153846153847,82.67530701754386 53.49112426035503,84.09355263157894 53.55029585798817,83.2298245614035 C 53.609467455621306,82.36609649122806 53.63905325443787,79.01631578947368 53.69822485207101,78.18969298245614 C 53.757396449704146,77.3630701754386 53.78698224852071,79.65741228070175 53.84615384615385,79.09671052631579 C 53.905325443786985,78.53600877192983 53.93491124260355,74.43793859649122 53.994082840236686,75.38618421052631 C 54.053254437869825,76.3344298245614 54.08284023668639,82.16201754385965 54.142011834319526,83.83793859649123 C 54.201183431952664,85.51385964912281 54.23076923076923,85.56539473684211 54.28994082840237,83.76578947368421 C 54.34911242603551,81.96618421052631 54.37869822485207,75.81495614035087 54.43786982248521,74.83991228070175 C 54.49704142011835,73.86486842105263 54.52662721893491,78.21030701754385 54.58579881656805,78.8905701754386 C 54.64497041420119,79.57083333333334 54.67455621301775,77.78153508771929 54.73372781065089,78.24122807017544 C 54.79289940828403,78.70092105263159 54.82248520710059,80.3665350877193 54.88165680473373,81.1890350877193 C 54.94082840236687,82.01153508771931 54.97041420118343,81.38899122807017 55.02958579881657,82.35372807017544 C 55.08875739644971,83.3184649122807 55.11834319526627,85.38399122807017 55.17751479289941,86.01271929824561 C 55.23668639053255,86.64144736842105 55.26627218934911,85.9405701754386 55.32544378698225,85.49736842105263 C 55.38461538461539,85.05416666666666 55.41420118343195,84.81504385964912 55.47337278106509,83.79671052631579 C 55.532544378698226,82.77837719298246 55.562130177514796,81.06328947368421 55.621301775147934,80.40570175438596 C 55.68047337278107,79.74811403508771 55.710059171597635,81.11688596491229 55.769230769230774,80.50877192982456 C 55.82840236686391,79.90065789473684 55.857988165680474,76.8559649122807 55.91715976331361,77.36513157894737 C 55.97633136094675,77.87429824561404 56.005917159763314,82.28776315789474 56.06508875739645,83.0546052631579 C 56.12426035502959,83.82144736842105 56.15384615384615,80.88600877192982 56.21301775147929,81.19934210526316 C 56.27218934911243,81.51267543859649 56.30177514792899,85.4478947368421 56.36094674556213,84.62127192982456 C 56.42011834319527,83.79464912280702 56.44970414201183,78.31956140350877 56.50887573964497,77.06622807017544 C 56.56804733727811,75.81289473684211 56.59763313609467,77.92995614035088 56.65680473372781,78.3546052631579 C 56.71597633136095,78.7792543859649 56.74556213017752,78.57517543859649 56.80473372781066,79.18947368421053 C 56.863905325443795,79.80377192982456 56.89349112426036,81.13337719298245 56.952662721893496,81.42609649122807 C 57.011834319526635,81.71881578947368 57.0414201183432,79.68627192982457 57.100591715976336,80.6530701754386 C 57.159763313609474,81.61986842105263 57.18934911242604,85.9405701754386 57.248520710059175,86.26008771929824 C 57.307692307692314,86.57960526315789 57.337278106508876,83.78640350877194 57.396449704142015,82.25065789473685 C 57.45562130177515,80.71491228070175 57.485207100591715,79.36881578947369 57.544378698224854,78.5813596491228 C 57.60355029585799,77.79390350877192 57.633136094674555,77.82688596491228 57.69230769230769,78.31337719298246 C 57.75147928994083,78.79986842105264 57.781065088757394,81.14780701754385 57.84023668639053,81.01381578947368 C 57.89940828402367,80.87982456140351 57.928994082840234,77.76916666666666 57.98816568047337,77.64342105263158 C 58.04733727810651,77.5176754385965 58.07692307692308,79.17504385964912 58.13609467455622,80.38508771929824 C 58.19526627218936,81.59513157894736 58.22485207100592,83.02162280701754 58.28402366863906,83.69364035087719 C 58.3431952662722,84.36565789473684 58.37278106508876,85.51798245614034 58.4319526627219,83.74517543859649 C 58.491124260355036,81.97236842105264 58.5207100591716,75.81495614035089 58.57988165680474,74.8296052631579 C 58.639053254437876,73.84425438596492 58.66863905325444,78.52982456140352 58.72781065088758,78.81842105263158 C 58.786982248520715,79.10701754385964 58.81656804733728,76.55499999999999 58.875739644970416,76.27258771929824 C 58.934911242603555,75.9901754385965 58.96449704142012,77.1280701754386 59.023668639053255,77.4063596491228 C 59.082840236686394,77.68464912280702 59.112426035502956,77.34657894736841 59.171597633136095,77.6640350877193 C 59.23076923076923,77.98149122807018 59.260355029585796,78.39377192982457 59.319526627218934,78.9936403508772 C 59.37869822485207,79.59350877192983 59.40828402366864,81.23438596491228 59.46745562130178,80.66337719298245 C 59.52662721893492,80.09236842105263 59.55621301775148,77.8619298245614 59.61538461538462,76.13859649122807 C 59.67455621301776,74.41526315789474 59.70414201183432,72.0096052631579 59.76331360946746,72.04671052631579 C 59.8224852071006,72.08381578947369 59.85207100591716,75.64179824561404 59.9112426035503,76.32412280701755 C 59.97041420118344,77.00644736842105 60,75.10171052631578 60.05917159763314,75.45833333333333 C 60.11834319526628,75.81495614035087 60.14792899408284,77.47232456140351 60.20710059171598,78.10723684210527 C 60.26627218934912,78.74214912280702 60.29585798816568,78.6411403508772 60.35502958579882,78.6328947368421 C 60.414201183431956,78.62464912280701 60.44378698224852,79.45333333333333 60.50295857988166,78.06600877192983 C 60.562130177514796,76.67868421052633 60.59171597633136,73.01350877192982 60.650887573964496,71.69627192982456 C 60.710059171597635,70.3790350877193 60.739644970414204,72.2363596491228 60.79881656804734,71.4798245614035 C 60.85798816568048,70.7232894736842 60.887573964497044,67.45184210526315 60.94674556213018,67.91359649122806 C 61.00591715976332,68.37535087719297 61.03550295857988,72.66925438596492 61.09467455621302,73.78859649122808 C 61.15384615384616,74.90793859649123 61.18343195266272,72.98258771929824 61.24260355029586,73.51030701754385 C 61.301775147929,74.03802631578947 61.33136094674556,75.8273245614035 61.3905325443787,76.42719298245613 C 61.44970414201184,77.02706140350877 61.4792899408284,77.96912280701754 61.53846153846154,76.50964912280702 C 61.59763313609468,75.0501754385965 61.62721893491124,70.18938596491228 61.68639053254438,69.12982456140351 C 61.74556213017752,68.07026315789474 61.77514792899408,70.87583333333333 61.83431952662722,71.21184210526316 C 61.89349112426036,71.54785087719299 61.92307692307692,70.85934210526315 61.98224852071006,70.80986842105263 C 62.0414201183432,70.7603947368421 62.071005917159766,71.26543859649124 62.130177514792905,70.96447368421053 C 62.189349112426044,70.66350877192983 62.218934911242606,68.42276315789474 62.278106508875744,69.30504385964912 C 62.33727810650888,70.1873245614035 62.366863905325445,73.62986842105263 62.426035502958584,75.37587719298246 C 62.48520710059172,77.12188596491228 62.514792899408285,80.33767543859649 62.57396449704142,78.03508771929825 C 62.63313609467456,75.7325 62.662721893491124,65.55741228070175 62.72189349112426,63.862938596491226 C 62.7810650887574,62.1684649122807 62.81065088757396,69.5482894736842 62.8698224852071,69.56271929824561 C 62.92899408284024,69.57714912280701 62.9585798816568,64.01135964912281 63.01775147928994,63.935087719298245 C 63.07692307692308,63.85881578947369 63.10650887573964,68.0001754385965 63.16568047337278,69.18135964912281 C 63.22485207100592,70.36254385964912 63.25443786982248,68.50315789473684 63.31360946745562,69.84100877192982 C 63.37278106508876,71.1788596491228 63.40236686390533,75.45214912280703 63.46153846153847,75.87061403508773 C 63.520710059171606,76.28907894736842 63.55029585798817,72.06526315789475 63.609467455621306,71.93333333333334 C 63.668639053254445,71.80140350877193 63.69822485207101,76.06438596491228 63.757396449704146,75.2109649122807 C 63.816568047337284,74.35754385964913 63.84615384615385,69.00820175438596 63.905325443786985,67.66622807017544 C 63.964497041420124,66.3242543859649 63.994082840236686,68.46399122807017 64.05325443786982,68.50109649122807 C 64.11242603550296,68.53820175438597 64.14201183431953,68.12179824561403 64.20118343195267,67.85175438596491 C 64.26035502958581,67.58171052631579 64.28994082840237,66.73859649122807 64.3491124260355,67.15087719298245 C 64.40828402366864,67.56315789473683 64.43786982248521,69.54622807017543 64.49704142011835,69.91315789473684 C 64.55621301775149,70.28008771929825 64.58579881656804,69.31328947368421 64.64497041420118,68.98552631578947 C 64.70414201183432,68.65776315789473 64.73372781065089,70.54188596491228 64.79289940828403,68.27434210526316 C 64.85207100591717,66.00679824561404 64.88165680473372,58.23736842105263 64.94082840236686,57.647807017543855 C 65,57.05824561403508 65.02958579881657,63.20535087719298 65.08875739644971,65.3265350877193 C 65.14792899408285,67.44771929824562 65.1775147928994,69.2844298245614 65.23668639053254,68.25372807017544 C 65.29585798816568,67.22302631578948 65.32544378698225,59.43298245614035 65.38461538461539,60.17302631578947 C 65.44378698224853,60.91307017543859 65.4733727810651,68.90925438596491 65.53254437869823,71.95394736842105 C 65.59171597633137,74.9986403508772 65.62130177514793,77.21464912280702 65.68047337278107,75.39649122807018 C 65.7396449704142,73.57833333333333 65.76923076923077,64.63184210526316 65.82840236686391,62.86315789473684 C 65.88757396449705,61.09447368421052 65.9171597633136,65.19460526315788 65.97633136094674,66.55307017543859 C 66.03550295857988,67.9115350877193 66.06508875739645,69.5936403508772 66.12426035502959,69.65548245614035 C 66.18343195266273,69.7173245614035 66.21301775147928,66.52008771929825 66.27218934911242,66.86228070175439 C 66.33136094674556,67.20447368421053 66.36094674556213,69.61631578947367 66.42011834319527,71.36644736842105 C 66.47928994082841,73.11657894736842 66.50887573964496,75.46657894736843 66.5680473372781,75.61293859649123 C 66.62721893491124,75.75929824561403 66.65680473372781,74.22149122807016 66.71597633136095,72.09824561403508 C 66.77514792899409,69.975 66.80473372781066,66.7653947368421 66.8639053254438,64.99671052631578 C 66.92307692307693,63.228026315789464 66.95266272189349,63.53517543859649 67.01183431952663,63.25482456140351 C 67.07100591715977,62.97447368421053 67.10059171597634,64.51228070175438 67.15976331360947,63.594956140350874 C 67.21893491124261,62.67763157894736 67.24852071005917,57.37570175438596 67.3076923076923,58.66820175438596 C 67.36686390532545,59.960701754385966 67.39644970414201,69.95438596491228 67.45562130177515,70.05745614035088 C 67.51479289940829,70.16052631578947 67.54437869822485,59.65355263157894 67.60355029585799,59.18355263157894 C 67.66272189349112,58.71355263157894 67.6923076923077,66.07276315789473 67.75147928994083,67.70745614035087 C 67.81065088757397,69.34214912280702 67.84023668639053,67.30548245614035 67.89940828402366,67.35701754385966 C 67.9585798816568,67.40855263157896 67.98816568047337,68.00842105263158 68.04733727810651,67.96513157894736 C 68.10650887573965,67.92184210526315 68.13609467455622,67.38587719298246 68.19526627218936,67.1405701754386 C 68.2544378698225,66.89526315789473 68.28402366863905,67.4992543859649 68.34319526627219,66.73859649122807 C 68.40236686390533,65.97793859649123 68.4319526627219,65.15337719298245 68.49112426035504,63.33728070175438 C 68.55029585798817,61.52118421052631 68.57988165680473,59.42679824561403 68.63905325443787,57.65811403508771 C 68.69822485207101,55.8894298245614 68.72781065088758,57.43754385964912 68.78698224852072,54.493859649122804 C 68.84615384615385,51.55017543859649 68.87573964497041,46.5038596491228 68.93491124260355,42.93969298245614 C 68.99408284023669,39.37552631578947 69.02366863905326,39.6744298245614 69.0828402366864,36.67302631578947 C 69.14201183431953,33.67162280701754 69.1715976331361,31.74833333333333 69.23076923076924,27.93267543859649 C 69.28994082840238,24.11701754385965 69.31952662721893,17.36592105263158 69.37869822485207,17.594736842105263 C 69.43786982248521,17.823552631578945 69.46745562130178,27.22355263157894 69.52662721893492,29.076754385964904 C 69.58579881656806,30.929956140350868 69.61538461538461,25.19513157894736 69.67455621301775,26.860745614035082 C 69.73372781065089,28.526359649122803 69.76331360946746,36.147368421052626 69.8224852071006,37.4048245614035 C 69.88165680473374,38.662280701754376 69.91124260355029,39.897061403508765 69.97041420118343,33.148026315789465 C 70.02958579881657,26.398991228070166 70.05917159763314,9.689254385964908 70.11834319526628,3.6596491228070107 C 70.17751479289942,-2.3699561403508858 70.20710059171597,1.4518859649122673 70.26627218934911,2.999999999999986 C 70.32544378698225,4.548114035087704 70.35502958579882,8.233903508771917 70.41420118343196,11.400219298245602 C 70.4733727810651,14.566535087719288 70.50295857988166,15.224122807017533 70.5621301775148,18.831578947368413 C 70.62130177514794,22.439035087719294 70.6508875739645,27.273026315789473 70.71005917159763,29.4375 C 70.76923076923077,31.601973684210527 70.79881656804734,33.8653947368421 70.85798816568048,29.653947368421044 C 70.91715976331362,25.44249999999999 70.94674556213018,11.229122807017538 71.00591715976331,8.380263157894731 C 71.06508875739645,5.531403508771925 71.09467455621302,15.118991228070168 71.15384615384616,15.40964912280701 C 71.2130177514793,15.700307017543853 71.24260355029585,7.374298245614028 71.30177514792899,9.83355263157894 C 71.36094674556213,12.29280701754385 71.3905325443787,25.209561403508758 71.44970414201184,27.705921052631567 C 71.50887573964498,30.202280701754376 71.53846153846153,21.25578947368421 71.59763313609467,22.315350877192984 C 71.65680473372781,23.374912280701757 71.68639053254438,30.07035087719298 71.74556213017752,33.003728070175434 C 71.80473372781066,35.93710526315789 71.83431952662723,39.843464912280695 71.89349112426036,36.98223684210526 C 71.9526627218935,34.12100877192982 71.98224852071006,20.903289473684207 72.0414201183432,18.69758771929824 C 72.10059171597634,16.491885964912274 72.1301775147929,25.642456140350866 72.18934911242604,25.95372807017543 C 72.24852071005918,26.264999999999993 72.27810650887574,21.76083333333333 72.33727810650888,20.253947368421052 C 72.39644970414201,18.747061403508773 72.42603550295858,16.586710526315784 72.48520710059172,18.41929824561403 C 72.54437869822486,20.251885964912276 72.57396449704142,25.03434210526316 72.63313609467455,29.416885964912282 C 72.6923076923077,33.79942982456141 72.72189349112426,38.402543859649114 72.7810650887574,40.33201754385964 C 72.84023668639054,42.26149122807017 72.8698224852071,40.1815350877193 72.92899408284023,39.06425438596491 C 72.98816568047337,37.94697368421052 73.01775147928994,36.852368421052624 73.07692307692308,34.74561403508771 C 73.13609467455622,32.6388596491228 73.16568047337279,27.81723684210526 73.22485207100593,28.530482456140348 C 73.28402366863907,29.243728070175436 73.31360946745562,35.770131578947364 73.37278106508876,38.31184210526315 C 73.4319526627219,40.85355263157894 73.46153846153847,40.63916666666666 73.5207100591716,41.239035087719294 C 73.57988165680474,41.83890350877193 73.6094674556213,40.44745614035087 73.66863905325444,41.311184210526314 C 73.72781065088758,42.174912280701754 73.75739644970415,42.59543859649123 73.81656804733728,45.55767543859649 C 73.87573964497042,48.51991228070175 73.90532544378698,56.629473684210524 73.96449704142012,56.12236842105263 C 74.02366863905326,55.61526315789473 74.05325443786982,45.941096491228066 74.11242603550296,43.022149122807015 C 74.1715976331361,40.103201754385964 74.20118343195266,40.13412280701754 74.2603550295858,41.527631578947364 C 74.31952662721893,42.92114035087719 74.3491124260355,47.87675438596491 74.40828402366864,49.989692982456134 C 74.46745562130178,52.10263157894736 74.49704142011835,50.95030701754386 74.55621301775149,52.09232456140351 C 74.61538461538463,53.23434210526316 74.64497041420118,53.29 74.70414201183432,55.699780701754385 C 74.76331360946746,58.10956140350877 74.79289940828403,62.588991228070164 74.85207100591717,64.14122807017543 C 74.9112426035503,65.69346491228069 74.94082840236686,65.72644736842105 75,63.4609649122807 C 75.05917159763314,61.195482456140354 75.08875739644971,53.16631578947368 75.14792899408285,52.81381578947368 C 75.20710059171599,52.46131578947368 75.23668639053254,59.82052631578947 75.29585798816568,61.6984649122807 C 75.35502958579882,63.576403508771925 75.38461538461539,62.16434210526315 75.44378698224853,62.20350877192982 C 75.50295857988166,62.242675438596486 75.53254437869822,60.3544298245614 75.59171597633136,61.89429824561403 C 75.6508875739645,63.43416666666666 75.68047337278107,68.28877192982455 75.7396449704142,69.90285087719298 C 75.79881656804734,71.5169298245614 75.82840236686391,69.5853947368421 75.88757396449705,69.96469298245614 C 75.94674556213019,70.34399122807018 75.97633136094674,73.31035087719297 76.03550295857988,71.79934210526315 C 76.09467455621302,70.28833333333333 76.12426035502959,64.54526315789474 76.18343195266273,62.40964912280702 C 76.24260355029587,60.2740350877193 76.27218934911242,61.446973684210526 76.33136094674556,61.12127192982456 C 76.3905325443787,60.79557017543859 76.42011834319527,58.72592105263157 76.47928994082841,60.78114035087719 C 76.53846153846155,62.836359649122805 76.5680473372781,71.0180701754386 76.62721893491124,71.39736842105263 C 76.68639053254438,71.77666666666667 76.71597633136095,61.5809649122807 76.77514792899409,62.67763157894736 C 76.83431952662723,63.77429824561403 76.86390532544378,75.1738596491228 76.92307692307692,76.88070175438597 C 76.98224852071006,78.58754385964913 77.01183431952663,73.84013157894736 77.07100591715977,71.21184210526316 C 77.1301775147929,68.58355263157895 77.15976331360947,63.90622807017544 77.21893491124261,63.73925438596491 C 77.27810650887575,63.57228070175439 77.3076923076923,68.33206140350877 77.36686390532545,70.37697368421053 C 77.42603550295858,72.42188596491228 77.45562130177515,74.3307456140351 77.51479289940829,73.96381578947368 C 77.57396449704143,73.59688596491227 77.60355029585799,68.3671052631579 77.66272189349112,68.5423245614035 C 77.72189349112426,68.71754385964911 77.75147928994083,72.52701754385964 77.81065088757397,74.83991228070175 C 77.86982248520711,77.15280701754386 77.89940828402366,79.9542543859649 77.9585798816568,80.10679824561403 C 78.01775147928994,80.25934210526316 78.04733727810651,76.95285087719299 78.10650887573965,75.60263157894737 C 78.16568047337279,74.25241228070175 78.19526627218934,74.28951754385965 78.25443786982248,73.35570175438596 C 78.31360946745562,72.42188596491228 78.34319526627219,70.9809649122807 78.40236686390533,70.93355263157895 C 78.46153846153847,70.8861403508772 78.49112426035504,71.93333333333332 78.55029585798817,73.11864035087719 C 78.60946745562131,74.30394736842105 78.63905325443787,75.15324561403507 78.69822485207101,76.86008771929824 C 78.75739644970415,78.5669298245614 78.78698224852072,81.76004385964912 78.84615384615385,81.65285087719298 C 78.90532544378699,81.54565789473683 78.93491124260355,76.53232456140351 78.99408284023669,76.32412280701755 C 79.05325443786982,76.11592105263158 79.0828402366864,80.89219298245614 79.14201183431953,80.61184210526315 C 79.20118343195267,80.33149122807016 79.23076923076923,75.61293859649122 79.28994082840237,74.92236842105262 C 79.3491124260355,74.23179824561403 79.37869822485207,76.56118421052632 79.43786982248521,77.15899122807018 C 79.49704142011835,77.75679824561404 79.5266272189349,77.36719298245613 79.58579881656804,77.91140350877193 C 79.64497041420118,78.45561403508772 79.67455621301775,79.06785087719298 79.73372781065089,79.88004385964912 C 79.79289940828403,80.69223684210526 79.8224852071006,80.82622807017545 79.88165680473374,81.97236842105264 C 79.94082840236688,83.11850877192983 79.97041420118343,85.49530701754385 80.02958579881657,85.61074561403508 C 80.08875739644971,85.72618421052631 80.11834319526628,83.80083333333333 80.17751479289942,82.54956140350878 C 80.23668639053255,81.29828947368422 80.26627218934911,79.57495614035088 80.32544378698225,79.35438596491228 C 80.38461538461539,79.13381578947369 80.41420118343196,81.00557017543859 80.4733727810651,81.44671052631578 C 80.53254437869823,81.88785087719297 80.56213017751479,81.42609649122808 80.62130177514793,81.56008771929825 C 80.68047337278107,81.69407894736842 80.71005917159763,81.96412280701755 80.76923076923077,82.11666666666666 C 80.82840236686391,82.26921052631577 80.85798816568047,81.74149122807016 80.9171597633136,82.32280701754385 C 80.97633136094674,82.90412280701754 81.00591715976331,84.62127192982456 81.06508875739645,85.02324561403509 C 81.12426035502959,85.42521929824562 81.15384615384616,85.77978070175439 81.2130177514793,84.3326754385965 C 81.27218934911244,82.8855701754386 81.30177514792899,78.62052631578946 81.36094674556213,77.7877192982456 C 81.42011834319527,76.95491228070175 81.44970414201184,79.51929824561402 81.50887573964498,80.16864035087718 C 81.56804733727812,80.81798245614034 81.59763313609467,80.84684210526315 81.65680473372781,81.0344298245614 C 81.71597633136095,81.22201754385965 81.74556213017752,80.92929824561404 81.80473372781066,81.10657894736842 C 81.8639053254438,81.2838596491228 81.89349112426035,81.1890350877193 81.95266272189349,81.92083333333333 C 82.01183431952663,82.65263157894736 82.0414201183432,84.36565789473684 82.10059171597634,84.7655701754386 C 82.15976331360947,85.16548245614035 82.18934911242603,85.18609649122806 82.24852071005917,83.9203947368421 C 82.3076923076923,82.65469298245614 82.33727810650888,79.04929824561404 82.39644970414201,78.43706140350878 C 82.45562130177515,77.82482456140352 82.48520710059172,81.14574561403509 82.54437869822486,80.85921052631579 C 82.603550295858,80.57267543859649 82.63313609467455,77.05798245614035 82.6923076923077,77.00438596491227 C 82.75147928994083,76.9507894736842 82.7810650887574,80.76026315789473 82.84023668639054,80.59122807017543 C 82.89940828402368,80.42219298245614 82.92899408284023,76.19425438596491 82.98816568047337,76.15921052631579 C 83.04733727810651,76.12416666666667 83.07692307692308,80.03671052631579 83.13609467455622,80.41600877192982 C 83.19526627218936,80.79530701754386 83.22485207100591,79.84912280701754 83.28402366863905,78.05570175438596 C 83.34319526627219,76.26228070175439 83.37278106508876,72.88982456140351 83.4319526627219,71.44890350877193 C 83.49112426035504,70.00798245614035 83.5207100591716,71.40149122807019 83.57988165680474,70.85109649122808 C 83.63905325443788,70.30070175438597 83.66863905325444,68.36504385964913 83.72781065088758,68.69692982456141 C 83.78698224852072,69.02881578947368 83.81656804733728,71.93951754385965 83.87573964497042,72.51052631578948 C 83.93491124260356,73.0815350877193 83.96449704142012,70.62434210526315 84.02366863905326,71.55197368421052 C 84.0828402366864,72.4796052631579 84.11242603550296,76.16333333333333 84.1715976331361,77.14868421052631 C 84.23076923076924,78.1340350877193 84.2603550295858,79.61 84.31952662721893,76.47872807017544 C 84.37869822485207,73.34745614035087 84.40828402366864,63.351710526315784 84.46745562130178,61.49232456140351 C 84.52662721893492,59.63293859649123 84.55621301775147,66.6994298245614 84.61538461538461,67.18179824561403 C 84.67455621301775,67.66416666666666 84.70414201183432,64.69162280701754 84.76331360946746,63.90416666666666 C 84.8224852071006,63.116710526315785 84.85207100591717,63.6073245614035 84.9112426035503,63.244517543859644 C 84.97041420118344,62.881710526315786 85,60.577061403508765 85.05917159763314,62.090131578947364 C 85.11834319526628,63.603201754385964 85.14792899408285,70.02035087719298 85.20710059171599,70.80986842105263 C 85.26627218934912,71.59938596491227 85.29585798816568,69.04118421052631 85.35502958579882,66.0377192982456 C 85.41420118343196,63.03425438596491 85.44378698224853,57.83127192982456 85.50295857988166,55.79254385964912 C 85.5621301775148,53.753815789473684 85.59171597633136,55.91416666666666 85.6508875739645,55.844078947368416 C 85.71005917159763,55.77399122807017 85.7396449704142,56.06258771929824 85.79881656804734,55.44210526315789 C 85.85798816568048,54.82162280701754 85.88757396449704,53.52087719298245 85.94674556213018,52.74166666666666 C 86.00591715976331,51.962456140350874 86.03550295857988,50.583377192982454 86.09467455621302,51.546052631578945 C 86.15384615384616,52.50872807017544 86.18343195266273,55.862631578947365 86.24260355029587,57.55504385964912 C 86.301775147929,59.24745614035087 86.33136094674556,63.25894736842105 86.3905325443787,60.008114035087715 C 86.44970414201184,56.75728070175438 86.47928994082841,43.374649122807014 86.53846153846155,41.300877192982455 C 86.59763313609469,39.227105263157895 86.62721893491124,50.869912280701755 86.68639053254438,49.63925438596491 C 86.74556213017752,48.40859649122807 86.77514792899409,35.17850877192982 86.83431952662723,35.147587719298244 C 86.89349112426036,35.11666666666667 86.92307692307692,47.42530701754386 86.98224852071006,49.484649122807014 C 87.0414201183432,51.54399122807017 87.07100591715977,45.627763157894734 87.1301775147929,45.44429824561403 C 87.18934911242604,45.26083333333332 87.2189349112426,47.34697368421052 87.27810650887574,48.5673245614035 C 87.33727810650888,49.78767543859649 87.36686390532545,55.69565789473684 87.42603550295858,51.546052631578945 C 87.48520710059172,47.39644736842105 87.51479289940829,32.397675438596494 87.57396449704143,27.819298245614036 C 87.63313609467457,23.240921052631577 87.66272189349112,28.309912280701745 87.72189349112426,28.654166666666654 C 87.7810650887574,28.998421052631564 87.81065088757397,29.76526315789473 87.86982248520711,29.54057017543859 C 87.92899408284025,29.315877192982448 87.9585798816568,28.103771929824553 88.01775147928994,27.53070175438596 C 88.07692307692308,26.957631578947364 88.10650887573965,24.531359649122802 88.16568047337279,26.675219298245608 C 88.22485207100593,28.819078947368414 88.25443786982248,36.23807017543859 88.31360946745562,38.24999999999999 C 88.37278106508876,40.2619298245614 88.40236686390533,41.26377192982456 88.46153846153847,36.734868421052624 C 88.5207100591716,32.20596491228069 88.55029585798816,20.385877192982456 88.6094674556213,15.60548245614035 C 88.66863905325444,10.825087719298246 88.69822485207101,12.639122807017532 88.75739644970415,12.832894736842093 C 88.81656804733728,13.026666666666653 88.84615384615385,10.623070175438592 88.90532544378699,16.574342105263156 C 88.96449704142013,22.52561403508772 88.99408284023669,42.537719298245605 89.05325443786982,42.58925438596491 C 89.11242603550296,42.64078947368421 89.14201183431953,18.47083333333333 89.20118343195267,16.83201754385965 C 89.26035502958581,15.193201754385965 89.28994082840237,30.29504385964912 89.3491124260355,34.39517543859649 C 89.40828402366864,38.49530701754386 89.43786982248521,42.209956140350876 89.49704142011835,37.33267543859649 C 89.55621301775149,32.4553947368421 89.58579881656804,13.558508771929809 89.64497041420118,10.008771929824547 C 89.70414201183432,6.459035087719285 89.73372781065089,17.1659649122807 89.79289940828403,19.583991228070175 C 89.85207100591717,22.00201754385965 89.88165680473372,22.288552631578945 89.94082840236686,22.098903508771926 C 90,21.909254385964907 90.02958579881657,18.297675438596492 90.08875739644971,18.635745614035088 C 90.14792899408285,18.973815789473683 90.17751479289942,19.94061403508772 90.23668639053255,23.78925438596491 C 90.2958579881657,27.6378947368421 90.32544378698225,37.309999999999995 90.38461538461539,37.878947368421045 C 90.44378698224853,38.447894736842095 90.4733727810651,27.8069298245614 90.53254437869823,26.633991228070172 C 90.59171597633137,25.461052631578944 90.62130177514793,31.148464912280694 90.68047337278107,32.014254385964904 C 90.7396449704142,32.88004385964911 90.76923076923077,32.14824561403509 90.82840236686391,30.962938596491227 C 90.88757396449705,29.777631578947368 90.9171597633136,23.1357894736842 90.97633136094674,26.087719298245602 C 91.03550295857988,29.039649122807006 91.06508875739645,41.81004385964911 91.12426035502959,45.72258771929824 C 91.18343195266273,49.635131578947366 91.21301775147928,46.29359649122807 91.27218934911242,45.65043859649123 C 91.33136094674556,45.00728070175438 91.36094674556213,40.33201754385964 91.42011834319527,42.50679824561403 C 91.47928994082841,44.681578947368415 91.50887573964498,58.4888596491228 91.56804733727812,56.52434210526315 C 91.62721893491126,54.5598245614035 91.65680473372781,35.273333333333326 91.71597633136095,32.68421052631578 C 91.77514792899409,30.09508771929824 91.80473372781066,39.34254385964912 91.8639053254438,43.57872807017544 C 91.92307692307693,47.814912280701755 91.95266272189349,50.87815789473684 92.01183431952663,53.86513157894736 C 92.07100591715977,56.85210526315789 92.10059171597634,57.69728070175438 92.15976331360947,58.513596491228064 C 92.21893491124261,59.32991228070175 92.24852071005917,55.621447368421045 92.3076923076923,57.94671052631578 C 92.36686390532545,60.27197368421052 92.39644970414201,68.44337719298245 92.45562130177515,70.13991228070175 C 92.51479289940829,71.83644736842105 92.54437869822485,69.43078947368421 92.60355029585799,66.42938596491229 C 92.66272189349112,63.427982456140356 92.6923076923077,55.96776315789474 92.75147928994083,55.132894736842104 C 92.81065088757397,54.29802631578947 92.84023668639054,60.55850877192982 92.89940828402368,62.25504385964912 C 92.95857988165682,63.95157894736842 92.98816568047337,63.75368421052631 93.04733727810651,63.61557017543859 C 93.10650887573965,63.477456140350874 93.13609467455622,60.63065789473684 93.19526627218936,61.564473684210526 C 93.2544378698225,62.49828947368421 93.28402366863905,66.86434210526315 93.34319526627219,68.28464912280701 C 93.40236686390533,69.70495614035087 93.4319526627219,68.14447368421052 93.49112426035504,68.66600877192982 C 93.55029585798817,69.18754385964913 93.57988165680473,72.12916666666668 93.63905325443787,70.89232456140351 C 93.69822485207101,69.65548245614035 93.72781065088758,65.35951754385965 93.78698224852072,62.48179824561403 C 93.84615384615385,59.604078947368414 93.87573964497041,56.67070175438596 93.93491124260355,56.503728070175434 C 93.99408284023669,56.33675438596491 94.02366863905326,59.909166666666664 94.0828402366864,61.646929824561404 C 94.14201183431953,63.384692982456144 94.1715976331361,65.20078947368421 94.23076923076924,65.19254385964912 C 94.28994082840238,65.18429824561403 94.31952662721893,60.991403508771924 94.37869822485207,61.60570175438596 C 94.43786982248521,62.22 94.46745562130178,66.8684649122807 94.52662721893492,68.2640350877193 C 94.58579881656806,69.65960526315789 94.61538461538461,70.68 94.67455621301775,68.58355263157895 C 94.73372781065089,66.4871052631579 94.76331360946746,58.90938596491228 94.8224852071006,57.781798245614034 C 94.88165680473374,56.65421052631579 94.91124260355029,62.02004385964912 94.97041420118343,62.945614035087715 C 95.02958579881657,63.87118421052631 95.05917159763314,62.403464912280704 95.11834319526628,62.40964912280702 C 95.17751479289942,62.41583333333333 95.20710059171597,62.518903508771935 95.26627218934911,62.9765350877193 C 95.32544378698225,63.43416666666666 95.35502958579882,63.19710526315789 95.41420118343196,64.69780701754385 C 95.4733727810651,66.19850877192982 95.50295857988166,70.21206140350878 95.5621301775148,70.48004385964913 C 95.62130177514794,70.74802631578947 95.6508875739645,66.81074561403508 95.71005917159763,66.0377192982456 C 95.76923076923077,65.26469298245613 95.79881656804734,67.58995614035088 95.85798816568048,66.61491228070176 C 95.91715976331362,65.63986842105264 95.94674556213018,61.558289473684205 96.00591715976331,61.162499999999994 C 96.06508875739645,60.766710526315784 96.09467455621302,63.368201754385964 96.15384615384616,64.6359649122807 C 96.2130177514793,65.90372807017543 96.24260355029585,66.99421052631578 96.30177514792899,67.50131578947368 C 96.36094674556213,68.00842105263158 96.3905325443787,65.34508771929825 96.44970414201184,67.17149122807018 C 96.50887573964498,68.99789473684211 96.53846153846153,75.73662280701754 96.59763313609467,76.63333333333333 C 96.65680473372781,77.53004385964911 96.68639053254438,74.42969298245613 96.74556213017752,71.65504385964911 C 96.80473372781066,68.88039473684209 96.83431952662723,63.37026315789473 96.89349112426036,62.76008771929824 C 96.9526627218935,62.14991228070175 96.98224852071006,66.46236842105262 97.0414201183432,68.60416666666666 C 97.10059171597634,70.7459649122807 97.1301775147929,74.00092105263157 97.18934911242604,73.46907894736842 C 97.24852071005918,72.93723684210526 97.27810650887574,66.66026315789475 97.33727810650888,65.94495614035088 C 97.39644970414201,65.22964912280702 97.42603550295858,67.6105701754386 97.48520710059172,69.89254385964912 C 97.54437869822486,72.17451754385965 97.57396449704142,75.85824561403508 97.63313609467455,77.3548245614035 C 97.6923076923077,78.85140350877192 97.72189349112426,79.75842105263158 97.7810650887574,77.37543859649122 C 97.84023668639054,74.99245614035087 97.8698224852071,65.89754385964912 97.92899408284023,65.43991228070175 C 97.98816568047337,64.98228070175438 98.01775147928994,74.36991228070175 98.07692307692308,75.08728070175438 C 98.13609467455622,75.804649122807 98.16568047337279,69.13807017543859 98.22485207100593,69.0267543859649 C 98.28402366863907,68.91543859649123 98.31360946745562,73.55153508771929 98.37278106508876,74.53070175438596 C 98.4319526627219,75.50986842105263 98.46153846153847,72.94342105263156 98.5207100591716,73.92258771929824 C 98.57988165680474,74.9017543859649 98.6094674556213,78.51745614035087 98.66863905325444,79.4265350877193 C 98.72781065088758,80.33561403508773 98.75739644970415,80.43868421052632 98.81656804733728,78.46798245614035 C 98.87573964497042,76.49728070175438 98.90532544378698,71.51280701754386 98.96449704142012,69.57302631578948 C 99.02366863905326,67.63324561403509 99.05325443786982,68.37947368421054 99.11242603550296,68.76907894736843 C 99.1715976331361,69.15868421052632 99.20118343195267,69.63486842105264 99.26035502958581,71.52105263157895 C 99.31952662721895,73.40723684210526 99.3491124260355,75.85618421052632 99.40828402366864,78.2 C 99.46745562130178,80.54381578947368 99.49704142011835,83.53491228070176 99.55621301775149,83.24013157894737 C 99.61538461538463,82.94535087719298 99.64497041420118,78.7297807017544 99.70414201183432,76.72609649122808 C 99.76331360946746,74.72241228070176 99.79289940828403,74.02565789473684 99.85207100591717,73.22171052631579 C 99.9112426035503,72.41776315789474 99.97041420118343,72.8094298245614 100,72.7063596491228"></path></svg>