<svg id="news" xmlns="http://www.w3.org/2000/svg" width="44" height="44" fill="none"><g clip-path="url(#a)"><path fill-rule="evenodd" clip-rule="evenodd" d="M31.2 39H39V5H24.94a9.58 9.58 0 0 1 4.8 3.54c1.47 2.1 1.47 4.96 1.47 10.66V39z" fill="#C2C6E0"/><path fill-rule="evenodd" clip-rule="evenodd" d="M4.3 5v34H32V19.2c0-5.7 0-8.55-1.46-10.66A9.58 9.58 0 0 0 25.74 5H4.28z" fill="url(#b)"/><path d="M4.3 26h18.58c1.17 0 2.12.95 2.12 2.13V39H4.3V26z" fill="#FC4714"/><path d="M23.3 14c.6 0 .9 0 1.12.12.2.1.36.26.46.46.1.2.12.46.12.92v-.2.4-.2c0 .46-.01.72-.12.92-.1.2-.26.36-.46.46-.23.12-.53.12-1.12.12h-19v-3h19zm-9 5c.6 0 .9 0 1.12.12.2.1.37.26.47.46.1.2.11.46.11.92v-.2.4-.2c0 .46 0 .72-.11.92-.1.2-.27.36-.47.46-.22.12-.52.12-1.12.12h-10v-3h10z" fill="#262626"/></g><defs><linearGradient id="b" x1="18.1" y1="5" x2="18.1" y2="39" gradientUnits="userSpaceOnUse"><stop stop-color="#DBDEEF"/><stop offset="1" stop-color="#FEFEFF"/></linearGradient><clipPath id="a"><circle cx="22" cy="22" r="17"/></clipPath></defs></svg>