<svg id="realty" xmlns="http://www.w3.org/2000/svg" width="44" height="44" fill="none"><g clip-path="url(#a)"><path fill-rule="evenodd" clip-rule="evenodd" d="M39 5H5v34h6.38V19.17l13.45-7.8L39 19.45V5z" fill="#6F8E9C"/><path fill-rule="evenodd" clip-rule="evenodd" d="M39 5H5v34h6.38V19.17l13.45-7.8L39 19.45V5z" fill="#66767E"/><path fill="#FBFBFB" d="M18.46 24.13h12.75v14.88H18.46z"/><path fill-rule="evenodd" clip-rule="evenodd" d="M25.5 11.28a1 1 0 0 0-1 0l-13 7.37a1 1 0 0 0-.5.87V39h8V25h12v14h8V19.52a1 1 0 0 0-.5-.87l-13-7.37z" fill="#FC0"/><path d="M19 39V25l7 3.1V39h-7z" fill="#EBA704"/><path fill-rule="evenodd" clip-rule="evenodd" d="M19 39h-7V28.5l7-3.5v14z" fill="url(#b)"/></g><defs><linearGradient id="b" x1="21.62" y1="31.89" x2="13.44" y2="32.43" gradientUnits="userSpaceOnUse"><stop stop-color="#EBA704"/><stop offset="1" stop-color="#EBA704" stop-opacity="0"/></linearGradient><clipPath id="a"><circle cx="22" cy="22" r="17"/></clipPath></defs></svg>