<svg id="services" xmlns="http://www.w3.org/2000/svg" width="44" height="44" fill="none"><g clip-path="url(#a)"><path fill-rule="evenodd" clip-rule="evenodd" d="M5 5h34v14.87l-.7.92c-.5.67-.97 1.28-1.43 1.82a11.4 11.4 0 0 1-2.42 2.27c-.44.27-.93.49-1.45.5a1.85 1.85 0 0 1-1.31-.57c-.23-.23-.39-.5-.5-.78a5.15 5.15 0 0 1-.27-1.84c0-1.38.3-3.1.7-4.84.33-1.47.74-2.96 1.1-4.3l-5.44-1.83-8.3 13.67-1.31-.47 1.12-7.47-4.85-1.67-8.23 10.81-.7.86L5 34.04l.7-1.06 9.52-12.57-1.47 10.68 4.88 1.66 7.53-12.3 1.3.47-.14.9c-.1.65-.22 1.5-.22 2.42 0 .85.1 1.73.38 2.54.28.8.72 1.53 1.44 2.1v.01a5.49 5.49 0 0 0 3.4 1.2c.75 0 1.5-.17 2.26-.49a9.7 9.7 0 0 0 2.26-1.38 16 16 0 0 0 1.45-1.31l.71-.66v12.74H5V5z" fill="#FED42B"/><circle cx="11.91" cy="33.16" r="14.34" fill="#E1C6EE"/><circle cx="32" cy="39" r="11" fill="url(#b)"/><path d="m19.83 16.37-6.17-2.12L5 25.63v9.83l8.92-11.78-1.1 8.04 6.24 2.12L26.5 21.7c-.36 2.3-.95 7.5 4.11 9.03 3 .9 5.85-.6 8.4-3.2v-9.24c-2.5 3.8-4.93 6.54-6.2 6.18-2.12-.59-.2-7.46 1.03-11.9l.02-.07-6.91-2.33-8.22 13.51 1.1-7.3z" fill="url(#c)"/><g filter="url(#d)"><rect x="-8.33" y="16.89" width="37.87" height="4.11" rx="2.05" transform="rotate(-15 -8.33 16.9)" fill="#00935B"/></g><g filter="url(#e)"><rect x="15.61" y="9.7" width="13.2" height="3.61" rx="1.81" transform="rotate(30 15.61 9.7)" fill="#00935B"/></g><g filter="url(#f)"><rect x="6.57" y="11.78" width="13.2" height="3.43" rx="1.72" transform="rotate(30 6.57 11.78)" fill="#00935B"/></g><g filter="url(#g)"><rect x="-2.15" y="13.29" width="13.2" height="4.55" rx="2.27" transform="rotate(30 -2.15 13.3)" fill="#00935B"/></g><g filter="url(#h)"><rect width="13.42" height="3.61" rx="1.81" transform="scale(1 -1) rotate(60 20.96 7.4)" fill="#00935B"/></g><g filter="url(#i)"><rect width="13.42" height="4.02" rx="2.01" transform="scale(1 -1) rotate(60 18.1 -1.45)" fill="#00935B"/></g><g filter="url(#j)"><path fill="#00935B" d="m-.04 16.44 3.99-6.91-.1-.06-3.99 6.91z"/></g><circle cx="31.5" cy="31.5" r="4.5" fill="url(#k)"/></g><defs><filter id="d" x="-9.87" y="5.55" width="40.72" height="16.85" filterUnits="userSpaceOnUse" color-interpolation-filters="sRGB"><feFlood flood-opacity="0" result="BackgroundImageFix"/><feBlend in="SourceGraphic" in2="BackgroundImageFix" result="shape"/><feGaussianBlur stdDeviation="1" result="effect1_foregroundBlur_1555_97684"/></filter><filter id="e" x="12.47" y="8.36" width="15.91" height="12.41" filterUnits="userSpaceOnUse" color-interpolation-filters="sRGB"><feFlood flood-opacity="0" result="BackgroundImageFix"/><feBlend in="SourceGraphic" in2="BackgroundImageFix" result="shape"/><feGaussianBlur stdDeviation="1" result="effect1_foregroundBlur_1555_97684"/></filter><filter id="f" x="3.48" y="10.41" width="15.89" height="12.31" filterUnits="userSpaceOnUse" color-interpolation-filters="sRGB"><feFlood flood-opacity="0" result="BackgroundImageFix"/><feBlend in="SourceGraphic" in2="BackgroundImageFix" result="shape"/><feGaussianBlur stdDeviation="1" result="effect1_foregroundBlur_1555_97684"/></filter><filter id="g" x="-5.59" y="12.13" width="16.04" height="12.87" filterUnits="userSpaceOnUse" color-interpolation-filters="sRGB"><feFlood flood-opacity="0" result="BackgroundImageFix"/><feBlend in="SourceGraphic" in2="BackgroundImageFix" result="shape"/><feGaussianBlur stdDeviation="1" result="effect1_foregroundBlur_1555_97684"/></filter><filter id="h" x="12.42" y="-.32" width="12.52" height="16.11" filterUnits="userSpaceOnUse" color-interpolation-filters="sRGB"><feFlood flood-opacity="0" result="BackgroundImageFix"/><feBlend in="SourceGraphic" in2="BackgroundImageFix" result="shape"/><feGaussianBlur stdDeviation="1" result="effect1_foregroundBlur_1555_97684"/></filter><filter id="i" x="3.04" y="1.5" width="12.72" height="16.16" filterUnits="userSpaceOnUse" color-interpolation-filters="sRGB"><feFlood flood-opacity="0" result="BackgroundImageFix"/><feBlend in="SourceGraphic" in2="BackgroundImageFix" result="shape"/><feGaussianBlur stdDeviation="1" result="effect1_foregroundBlur_1555_97684"/></filter><filter id="j" x="-3.83" y="5.77" width="11.48" height="14.36" filterUnits="userSpaceOnUse" color-interpolation-filters="sRGB"><feFlood flood-opacity="0" result="BackgroundImageFix"/><feColorMatrix in="SourceAlpha" values="0 0 0 0 0 0 0 0 0 0 0 0 0 0 0 0 0 0 127 0" result="hardAlpha"/><feMorphology radius="1.59" operator="dilate" in="SourceAlpha" result="effect1_dropShadow_1555_97684"/><feOffset/><feGaussianBlur stdDeviation="1.05"/><feComposite in2="hardAlpha" operator="out"/><feColorMatrix values="0 0 0 0 0 0 0 0 0 0.576471 0 0 0 0 0.356863 0 0 0 1 0"/><feBlend in2="BackgroundImageFix" result="effect1_dropShadow_1555_97684"/><feBlend in="SourceGraphic" in2="effect1_dropShadow_1555_97684" result="shape"/></filter><radialGradient id="b" cx="0" cy="0" r="1" gradientUnits="userSpaceOnUse" gradientTransform="matrix(0 11 -11 0 32 39)"><stop offset=".6" stop-color="#F04E25"/><stop offset=".78" stop-color="#F04E25" stop-opacity=".7"/><stop offset="1" stop-color="#F04E25" stop-opacity="0"/></radialGradient><radialGradient id="k" cx="0" cy="0" r="1" gradientUnits="userSpaceOnUse" gradientTransform="rotate(90 0 31.5) scale(4.5)"><stop offset=".42" stop-color="#FBF3E9"/><stop offset=".65" stop-color="#FBF3E9" stop-opacity=".7"/><stop offset=".97" stop-color="#FBF3E9" stop-opacity="0"/></radialGradient><linearGradient id="c" x1="21.59" y1="4.47" x2="22.15" y2="35.15" gradientUnits="userSpaceOnUse"><stop stop-color="#3E3F3A"/><stop offset="1"/></linearGradient><clipPath id="a"><circle cx="22" cy="22" r="17"/></clipPath></defs></svg>