<svg id="snow" xmlns="http://www.w3.org/2000/svg" xmlns:xlink="http://www.w3.org/1999/xlink" fill="none" viewBox="0 0 40 40"><mask id="a" height="40" maskUnits="userSpaceOnUse" width="40" x="0" y="0"><path d="m0 0h40v40h-40z" fill="#fff"/></mask><mask id="b" height="18" maskUnits="userSpaceOnUse" width="25" x="15" y="12"><path clip-rule="evenodd" d="m40 21c0-2.3873-.9519-4.6766-2.6346-6.3641-1.6923-1.6875-3.9808-2.6359-6.3654-2.6359-7.1635 0-16 0-16 0v18h16c2.3846 0 4.6731-.9484 6.3654-2.6359 1.6827-1.6875 2.6346-3.9769 2.6346-6.3641z" fill="#fff" fill-rule="evenodd"/></mask><g mask="url(#a)"><g clip-rule="evenodd" fill-rule="evenodd"><path d="m8.70039 34.095c.06.035.14.035.2 0 .06-.036.1-.102.1-.173 0-.376 0-.922 0-.922 0-.552.45-1 1.00001-1 .55 0 1 .448 1 1v.922c0 .071.04.137.1.173.06.035.14.035.2 0 .32-.184.78-.449.78-.449.23-.135.51-.172.77-.102.27.07.49.242.63.478v.001c.13.223.16.489.09.739-.06.249-.23.462-.45.591 0 0-.49.282-.82.474-.06.036-.1.102-.1.173s.04.137.1.173c.33.192.82.474.82.474.22.129.39.342.45.591.07.25.04.516-.09.739v.001c-.14.236-.36.408-.63.478-.26.07-.54.033-.77-.102 0 0-.46-.265-.78-.449-.06-.035-.14-.035-.2 0-.06.036-.1.102-.1.173v.922c0 .552-.45 1-1 1-.55001 0-1.00001-.448-1.00001-1 0 0 0-.546 0-.922 0-.071-.04-.137-.1-.173-.06-.035-.14-.035-.2 0-.33.192-.82.474-.82.474-.22.129-.49.164-.74.097s-.46-.23-.59-.453c0-.001 0-.001 0-.001-.14-.236-.17-.516-.1-.778.07-.263.24-.487.47-.623 0 0 .46-.264.78-.448.06-.036.1-.102.1-.173s-.04-.137-.1-.173c-.32-.184-.78-.448-.78-.448-.23-.136-.4-.36-.47-.623-.07-.262-.04-.542.1-.778 0 0 0 0 0-.001.13-.223.34-.386.59-.453s.52-.032.74.097c0 0 .49.282.82.474z" fill="#0dcaf2"/><path d="m18.7001 34.095c.06.035.14.035.2 0 .06-.036.1-.102.1-.173 0-.376 0-.922 0-.922 0-.552.45-1 1-1s1 .448 1 1v.922c0 .071.04.137.1.173.06.035.14.035.2 0 .32-.188.8-.462.8-.462.48-.275 1.09-.112 1.36.366v.001c.28.478.12 1.09-.36 1.366 0 0-.48.273-.8.461-.06.036-.1.102-.1.173s.04.137.1.173c.32.188.8.461.8.461.48.276.64.888.36 1.366v.001c-.27.478-.88.641-1.36.366 0 0-.48-.274-.8-.462-.06-.035-.14-.035-.2 0-.06.036-.1.102-.1.173v.922c0 .552-.45 1-1 1s-1-.448-1-1c0 0 0-.546 0-.922 0-.071-.04-.137-.1-.173-.06-.035-.14-.035-.2 0-.32.188-.8.462-.8.462-.48.275-1.09.112-1.36-.366v-.001c-.28-.478-.12-1.09.36-1.366 0 0 .48-.273.8-.461.06-.036.1-.102.1-.173s-.04-.137-.1-.173c-.32-.188-.8-.461-.8-.461-.48-.276-.64-.888-.36-1.366v-.001c.27-.478.88-.641 1.36-.366 0 0 .48.274.8.462z" fill="#0dcaf2"/><path d="m28.7004 34.095c.06.035.14.035.2 0 .06-.036.1-.102.1-.173 0-.376 0-.922 0-.922 0-.552.45-1 1-1s1 .448 1 1v.922c0 .071.04.137.1.173.06.035.14.035.2 0 .33-.192.82-.474.82-.474.22-.129.49-.164.74-.097s.46.23.59.453v.001c.14.236.17.516.1.778-.07.263-.24.487-.47.623 0 0-.46.264-.78.448-.06.036-.1.102-.1.173s.04.137.1.173c.32.184.78.448.78.448.23.136.4.36.47.623.07.262.04.542-.1.778v.001c-.13.223-.34.386-.59.453s-.52.032-.74-.097c0 0-.49-.282-.82-.474-.06-.035-.14-.035-.2 0-.06.036-.1.102-.1.173v.922c0 .552-.45 1-1 1s-1-.448-1-1c0 0 0-.546 0-.922 0-.071-.04-.137-.1-.173-.06-.035-.14-.035-.2 0-.33.192-.82.474-.82.474-.22.129-.49.164-.74.097s-.46-.23-.59-.453c0-.001 0-.001 0-.001-.14-.236-.17-.516-.1-.778.07-.263.24-.487.47-.623 0 0 .46-.264.78-.448.06-.036.1-.102.1-.173s-.04-.137-.1-.173c-.32-.184-.78-.448-.78-.448-.23-.136-.4-.36-.47-.623-.07-.262-.04-.542.1-.778 0 0 0 0 0-.001.13-.223.34-.386.59-.453s.52-.032.74.097c0 0 .49.282.82.474z" fill="#0dcaf2"/><path d="m40 21c0-2.3873-.9519-4.6766-2.6346-6.3641-1.6923-1.6875-3.9808-2.6359-6.3654-2.6359-7.1635 0-16 0-16 0v18h16c2.3846 0 4.6731-.9484 6.3654-2.6359 1.6827-1.6875 2.6346-3.9769 2.6346-6.3641z" fill="#acacac"/><path d="m40 21c0-2.3873-.9519-4.6766-2.6346-6.3641-1.6923-1.6875-3.9808-2.6359-6.3654-2.6359-7.1635 0-16 0-16 0v18h16c2.3846 0 4.6731-.9484 6.3654-2.6359 1.6827-1.6875 2.6346-3.9769 2.6346-6.3641z" fill="#d5d5d5"/></g><g mask="url(#b)"><path clip-rule="evenodd" d="m24 0v19h4.19c2.31 0 4.4-1.377 5.31-3.5s3-3.5 5.31-3.5h1.19v-12z" fill="#999" fill-rule="evenodd"/></g><path clip-rule="evenodd" d="m15 29.9995c8.2843 0 15-6.7157 15-15 0-8.28427-6.7157-14.99998828-15-14.99998828-8.28428 0-15 6.71571828-15 14.99998828 0 8.2843 6.71572 15 15 15z" fill="#d5d5d5" fill-rule="evenodd"/></g></svg>