<svg id="sun-and-snow" xmlns="http://www.w3.org/2000/svg" xmlns:xlink="http://www.w3.org/1999/xlink" fill="none" viewBox="0 0 40 40"><mask id="a" height="40" maskUnits="userSpaceOnUse" width="40" x="0" y="0"><path d="m0 0h40v40h-40z" fill="#fff"/></mask><mask id="b" height="14" maskUnits="userSpaceOnUse" width="18" x="22" y="22"><path clip-rule="evenodd" d="m39.9816 28.5907c0-1.7479-.6923-3.4241-1.9316-4.6606-1.2323-1.2356-2.9077-1.9297-4.6592-1.9297-4.7769 0-10.4123 0-10.4123 0v13.05h10.5438c1.717 0 3.3577-.6802 4.5693-1.8914 1.2115-1.2112 1.89-2.8539 1.89-4.5667 0-.0008 0-.0016 0-.0016z" fill="#fff" fill-rule="evenodd"/></mask><g mask="url(#a)"><path clip-rule="evenodd" d="m15 30.0006c8.2843 0 15-6.7157 15-15s-6.7157-15.00005068-15-15.00005068c-8.28427 0-15 6.71575068-15 15.00005068s6.71573 15 15 15z" fill="#ffdc55" fill-rule="evenodd"/><path clip-rule="evenodd" d="m39.9816 28.5907c0-1.7479-.6923-3.4241-1.9316-4.6606-1.2323-1.2356-2.9077-1.9297-4.6592-1.9297-4.7769 0-10.4123 0-10.4123 0v13.05h10.5438c1.717 0 3.3577-.6802 4.5693-1.8914 1.2115-1.2112 1.89-2.8539 1.89-4.5667 0-.0008 0-.0016 0-.0016z" fill="#acacac" fill-rule="evenodd"/><path clip-rule="evenodd" d="m39.9816 28.5907c0-1.7479-.6923-3.4241-1.9316-4.6606-1.2323-1.2356-2.9077-1.9297-4.6592-1.9297-4.7769 0-10.4123 0-10.4123 0v13.05h10.5438c1.717 0 3.3577-.6802 4.5693-1.8914 1.2115-1.2112 1.89-2.8539 1.89-4.5667 0-.0008 0-.0016 0-.0016z" fill="#d5d5d5" fill-rule="evenodd"/><g mask="url(#b)"><path clip-rule="evenodd" d="m28.4688 14.3004v13.775h2.4191c2.0232 0 3.8592-1.2107 4.6512-3.0762v-.0007c.5184-1.2115 1.7064-1.9981 3.024-1.9981h1.4256v-8.7z" fill="#999" fill-rule="evenodd"/></g><g clip-rule="evenodd" fill-rule="evenodd"><path d="m22.9844 35.0005c5.5229 0 10-4.4772 10-10 0-5.5229-4.4771-10.0001-10-10.0001s-10 4.4772-10 10.0001c0 5.5228 4.4771 10 10 10z" fill="#d5d5d5"/><path d="m17.1106 34.0951c.06.035.14.035.2 0 .06-.036.1-.102.1-.173 0-.376 0-.922 0-.922 0-.552.45-1 1-1s1 .448 1 1v.922c0 .071.04.137.1.173.06.035.14.035.2 0 .32-.184.78-.449.78-.449.23-.135.51-.172.77-.102.27.07.49.242.63.478v.001c.13.223.16.489.09.739-.06.249-.23.462-.45.591 0 0-.49.282-.82.474-.06.036-.1.102-.1.173s.04.137.1.173c.33.192.82.474.82.474.22.129.39.342.45.591.07.25.04.516-.09.739v.001c-.14.236-.36.408-.63.478-.26.07-.54.033-.77-.102 0 0-.46-.265-.78-.449-.06-.035-.14-.035-.2 0-.06.036-.1.102-.1.173v.922c0 .552-.45 1-1 1s-1-.448-1-1c0 0 0-.546 0-.922 0-.071-.04-.137-.1-.173-.06-.035-.14-.035-.2 0-.33.192-.82.474-.82.474-.22.129-.49.164-.74.097s-.46-.23-.59-.453c0-.001 0-.001 0-.001-.14-.236-.17-.516-.1-.778.07-.263.24-.487.47-.623 0 0 .46-.264.78-.448.06-.036.1-.102.1-.173s-.04-.137-.1-.173c-.32-.184-.78-.448-.78-.448-.23-.136-.4-.36-.47-.623-.07-.262-.04-.542.1-.778 0 0 0 0 0-.001.13-.223.34-.386.59-.453s.52-.032.74.097c0 0 .49.282.82.474z" fill="#0dcaf2"/><path d="m26.1103 34.0951c.06.035.14.035.2 0 .06-.036.1-.102.1-.173 0-.376 0-.922 0-.922 0-.552.45-1 1-1s1 .448 1 1v.922c0 .071.04.137.1.173.06.035.14.035.2 0 .32-.188.8-.462.8-.462.48-.275 1.09-.112 1.36.366v.001c.28.478.12 1.09-.36 1.366 0 0-.48.273-.8.461-.06.036-.1.102-.1.173s.04.137.1.173c.32.188.8.461.8.461.48.276.64.888.36 1.366v.001c-.27.478-.88.641-1.36.366 0 0-.48-.274-.8-.462-.06-.035-.14-.035-.2 0-.06.036-.1.102-.1.173v.922c0 .552-.45 1-1 1s-1-.448-1-1c0 0 0-.546 0-.922 0-.071-.04-.137-.1-.173-.06-.035-.14-.035-.2 0-.32.188-.8.462-.8.462-.48.275-1.09.112-1.36-.366v-.001c-.28-.478-.12-1.09.36-1.366 0 0 .48-.273.8-.461.06-.036.1-.102.1-.173s-.04-.137-.1-.173c-.32-.188-.8-.461-.8-.461-.48-.276-.64-.888-.36-1.366v-.001c.27-.478.88-.641 1.36-.366 0 0 .48.274.8.462z" fill="#0dcaf2"/><path d="m35.1106 34.0951c.06.035.14.035.2 0 .06-.036.1-.102.1-.173 0-.376 0-.922 0-.922 0-.552.45-1 1-1s1 .448 1 1v.922c0 .071.04.137.1.173.06.035.14.035.2 0 .33-.192.82-.474.82-.474.22-.129.49-.164.74-.097s.46.23.59.453v.001c.14.236.17.516.1.778-.07.263-.24.487-.47.623 0 0-.46.264-.78.448-.06.036-.1.102-.1.173s.04.137.1.173c.32.184.78.448.78.448.23.136.4.36.47.623.07.262.04.542-.1.778v.001c-.13.223-.34.386-.59.453s-.52.032-.74-.097c0 0-.49-.282-.82-.474-.06-.035-.14-.035-.2 0-.06.036-.1.102-.1.173v.922c0 .552-.45 1-1 1s-1-.448-1-1c0 0 0-.546 0-.922 0-.071-.04-.137-.1-.173-.06-.035-.14-.035-.2 0-.33.192-.82.474-.82.474-.22.129-.49.164-.74.097s-.46-.23-.59-.453c0-.001 0-.001 0-.001-.14-.236-.17-.516-.1-.778.07-.263.24-.487.47-.623 0 0 .46-.264.78-.448.06-.036.1-.102.1-.173s-.04-.137-.1-.173c-.32-.184-.78-.448-.78-.448-.23-.136-.4-.36-.47-.623-.07-.262-.04-.542.1-.778 0 0 0 0 0-.001.13-.223.34-.386.59-.453s.52-.032.74.097c0 0 .49.282.82.474z" fill="#0dcaf2"/></g></g></svg>